M48
; DRILL file {KiCad 9.0.2} date 2025-06-10T11:05:29+0530
; FORMAT={-:-/ absolute / metric / decimal}
; #@! TF.CreationDate,2025-06-10T11:05:29+05:30
; #@! TF.GenerationSoftware,Kicad,Pcbnew,9.0.2
; #@! TF.FileFunction,NonPlated,1,2,NPTH
FMAT,2
METRIC
; #@! TA.AperFunction,NonPlated,NPTH,ComponentDrill
T1C1.500
; #@! TA.AperFunction,NonPlated,NPTH,ComponentDrill
T2C1.700
; #@! TA.AperFunction,NonPlated,NPTH,ComponentDrill
T3C1.750
; #@! TA.AperFunction,NonPlated,NPTH,ComponentDrill
T4C1.800
; #@! TA.AperFunction,NonPlated,NPTH,ComponentDrill
T5C3.050
; #@! TA.AperFunction,NonPlated,NPTH,ComponentDrill
T6C4.000
%
G90
G05
T1
X398.246Y-99.654
X398.246Y-104.504
T2
X42.767Y-73.95
X42.79Y-45.405
X45.075Y-150.25
X52.927Y-73.95
X52.95Y-45.405
X54.585Y-131.2
X55.235Y-150.25
X61.84Y-73.98
X64.745Y-131.2
X71.135Y-93.045
X72.0Y-73.98
X76.127Y-112.08
X80.89Y-45.405
X80.89Y-73.98
X81.295Y-93.045
X85.652Y-131.13
X86.287Y-112.08
X90.175Y-93.045
X91.05Y-45.405
X91.05Y-73.98
X95.177Y-112.08
X95.812Y-131.13
X99.94Y-45.405
X99.94Y-73.98
X100.335Y-93.045
X104.703Y-131.13
X105.337Y-112.08
X109.255Y-93.025
X110.1Y-45.405
X110.1Y-73.98
X114.227Y-112.08
X114.862Y-131.13
X118.99Y-45.405
X118.99Y-73.98
X119.415Y-93.025
X123.752Y-131.13
X124.387Y-112.08
X128.325Y-93.065
X129.15Y-45.405
X129.15Y-73.98
X133.278Y-112.08
X133.912Y-131.13
X138.035Y-74.005
X138.04Y-45.405
X138.485Y-93.065
X142.802Y-131.13
X143.438Y-112.08
X147.405Y-93.055
X148.195Y-74.005
X148.2Y-45.405
X152.327Y-112.08
X152.963Y-131.13
X157.09Y-73.98
X157.565Y-93.055
X161.852Y-131.13
X162.487Y-112.08
X164.155Y-150.2
X166.475Y-93.055
X166.615Y-45.405
X167.25Y-73.98
X171.377Y-112.08
X172.012Y-131.13
X174.315Y-150.2
X176.14Y-73.98
X176.635Y-93.055
X176.775Y-45.405
X180.903Y-131.13
X181.537Y-112.08
X185.515Y-93.045
X185.665Y-45.405
X186.3Y-73.98
X190.427Y-112.08
X191.062Y-131.13
X195.19Y-73.98
X195.675Y-93.045
X195.825Y-45.405
X199.952Y-131.13
X200.587Y-112.08
X204.585Y-93.045
X204.715Y-45.405
X205.35Y-73.98
X209.477Y-112.08
X210.112Y-131.13
X214.24Y-73.98
X214.745Y-93.045
X214.875Y-45.405
X219.002Y-131.13
X219.637Y-112.08
X223.675Y-93.035
X223.765Y-45.405
X224.4Y-73.98
X228.528Y-112.08
X229.162Y-131.13
X233.29Y-73.98
X233.835Y-93.035
X233.925Y-45.405
X238.052Y-131.13
X238.688Y-112.08
X242.735Y-93.035
X243.45Y-73.98
X247.577Y-112.08
X248.212Y-131.13
X252.34Y-45.405
X252.34Y-73.98
X252.895Y-93.035
X257.102Y-131.13
X257.738Y-112.08
X261.825Y-93.025
X262.5Y-45.405
X262.5Y-73.98
X266.627Y-112.08
X267.262Y-131.13
X271.39Y-45.405
X271.39Y-73.98
X271.985Y-93.025
X276.787Y-112.08
X280.895Y-93.025
X281.55Y-45.405
X281.55Y-73.98
X290.44Y-45.405
X291.055Y-93.025
X292.795Y-131.12
X297.555Y-112.08
X300.6Y-45.405
X302.955Y-131.12
X307.715Y-112.08
X309.49Y-45.405
X319.65Y-45.405
X338.065Y-73.98
X338.065Y-150.18
X348.225Y-73.98
X348.225Y-150.18
X357.115Y-73.98
X357.115Y-131.13
X357.115Y-150.18
X367.275Y-73.98
X367.275Y-131.13
X367.275Y-150.18
X376.165Y-73.98
X376.165Y-150.18
X386.325Y-73.98
X386.325Y-150.18
T3
X47.385Y-93.055
X49.775Y-112.095
X57.545Y-93.055
X59.935Y-112.095
X68.797Y-150.22
X78.957Y-150.22
X92.638Y-150.22
X102.797Y-150.22
X235.637Y-150.18
X245.797Y-150.18
X259.488Y-150.16
X269.647Y-150.16
X283.267Y-150.14
X293.428Y-150.14
X302.485Y-68.87
X304.725Y-92.995
X307.107Y-150.15
X312.645Y-68.87
X314.885Y-92.995
X317.267Y-150.15
T4
X401.276Y-99.354
X401.276Y-104.804
T5
X47.765Y-124.2
X71.565Y-124.2
X119.235Y-143.2
X219.235Y-143.2
X285.975Y-124.12
X290.735Y-105.08
X309.775Y-124.12
X314.535Y-105.08
T6
X47.765Y-139.44
X47.847Y-73.95
X47.87Y-45.405
X50.155Y-150.25
X52.465Y-93.055
X54.855Y-112.095
X59.665Y-131.2
X66.92Y-73.98
X71.565Y-139.44
X73.877Y-150.22
X76.215Y-93.045
X81.207Y-112.08
X85.97Y-45.405
X85.97Y-73.98
X90.733Y-131.13
X95.255Y-93.045
X97.718Y-150.22
X100.257Y-112.08
X105.02Y-45.405
X105.02Y-73.98
X109.782Y-131.13
X114.335Y-93.025
X119.235Y-158.44
X119.307Y-112.08
X124.07Y-45.405
X124.07Y-73.98
X128.832Y-131.13
X133.405Y-93.065
X138.357Y-112.08
X143.115Y-74.005
X143.12Y-45.405
X147.882Y-131.13
X152.485Y-93.055
X157.407Y-112.08
X162.17Y-73.98
X166.933Y-131.13
X169.235Y-150.2
X171.555Y-93.055
X171.695Y-45.405
X176.457Y-112.08
X181.22Y-73.98
X185.982Y-131.13
X190.595Y-93.045
X190.745Y-45.405
X195.507Y-112.08
X200.27Y-73.98
X205.032Y-131.13
X209.665Y-93.045
X209.795Y-45.405
X214.557Y-112.08
X219.235Y-158.44
X219.32Y-73.98
X224.082Y-131.13
X228.755Y-93.035
X228.845Y-45.405
X233.607Y-112.08
X238.37Y-73.98
X240.718Y-150.18
X243.132Y-131.13
X247.815Y-93.035
X252.657Y-112.08
X257.42Y-45.405
X257.42Y-73.98
X262.183Y-131.13
X264.567Y-150.16
X266.905Y-93.025
X271.707Y-112.08
X276.47Y-45.405
X276.47Y-73.98
X285.975Y-93.025
X285.975Y-139.36
X288.347Y-150.14
X290.735Y-120.32
X295.52Y-45.405
X297.875Y-131.12
X302.635Y-112.08
X307.565Y-68.87
X309.775Y-139.36
X309.805Y-92.995
X312.188Y-150.15
X314.535Y-120.32
X314.57Y-45.405
X343.145Y-73.98
X343.145Y-150.18
X362.195Y-73.98
X362.195Y-131.13
X362.195Y-150.18
X381.245Y-73.98
X381.245Y-150.18
M30
