M48
; DRILL file {KiCad 9.0.2} date 2025-06-10T11:05:29+0530
; FORMAT={-:-/ absolute / metric / decimal}
; #@! TF.CreationDate,2025-06-10T11:05:29+05:30
; #@! TF.GenerationSoftware,Kicad,Pcbnew,9.0.2
; #@! TF.FileFunction,Plated,1,2,PTH
FMAT,2
METRIC
; #@! TA.AperFunction,Plated,PTH,ViaDrill
T1C0.300
; #@! TA.AperFunction,Plated,PTH,ComponentDrill
T2C0.800
; #@! TA.AperFunction,Plated,PTH,ComponentDrill
T3C1.000
; #@! TA.AperFunction,Plated,PTH,ComponentDrill
T4C1.020
; #@! TA.AperFunction,Plated,PTH,ComponentDrill
T5C1.500
; #@! TA.AperFunction,Plated,PTH,ComponentDrill
T6C2.200
%
G90
G05
T1
X59.935Y-62.232
X59.935Y-66.995
X102.845Y-56.4
X105.556Y-59.101
X121.775Y-58.98
X126.165Y-54.61
X158.185Y-162.12
X163.145Y-165.8
X176.616Y-152.72
X176.795Y-151.37
X192.675Y-62.79
X196.185Y-60.87
X206.545Y-58.78
X206.985Y-56.88
X212.335Y-100.332
X219.479Y-100.332
X286.154Y-157.482
X288.535Y-64.614
X290.916Y-57.47
X292.845Y-58.32
X293.298Y-136.051
X296.515Y-59.65
X300.315Y-140.46
X302.822Y-59.851
X302.822Y-147.957
X306.615Y-53.62
X309.542Y-54.664
X310.175Y-53.2
X322.705Y-51.71
X324.254Y-136.051
X325.195Y-62.27
X326.045Y-64.82
X326.635Y-79.501
X329.016Y-62.232
X331.397Y-140.814
X331.705Y-106.85
X336.16Y-84.264
X336.945Y-111.49
X338.985Y-89.42
X340.922Y-83.064
X346.585Y-114.32
X347.781Y-82.416
X348.066Y-81.282
X350.447Y-74.139
X352.829Y-55.089
X352.829Y-64.614
X356.099Y-100.69
X357.591Y-62.232
X359.972Y-119.382
X360.075Y-107.4
X361.615Y-116.35
X361.685Y-103.22
X362.354Y-136.051
X362.885Y-122.02
X365.914Y-123.791
X366.145Y-119.09
X366.885Y-85.92
X367.116Y-57.47
X367.399Y-115.87
X367.785Y-66.12
X369.505Y-117.88
X370.385Y-80.42
X373.466Y-102.585
X373.485Y-95.62
X374.26Y-138.433
X376.641Y-164.626
X383.785Y-124.145
X384.885Y-80.12
X386.775Y-101.66
X390.805Y-97.71
X392.015Y-83.04
X392.705Y-107.72
X392.855Y-100.0
X394.675Y-82.53
X394.815Y-71.6
X395.091Y-146.51
X395.995Y-101.49
X396.904Y-97.789
X398.085Y-94.99
X401.005Y-73.72
T2
X57.554Y-40.325
X57.554Y-47.945
X57.554Y-68.9
X57.554Y-76.52
X62.316Y-145.1
X62.316Y-152.72
X67.079Y-87.95
X67.079Y-95.57
X71.841Y-107.0
X71.841Y-114.62
X76.604Y-68.9
X76.604Y-76.52
X81.366Y-126.05
X81.366Y-133.67
X86.129Y-87.95
X86.129Y-95.57
X86.129Y-145.1
X86.129Y-152.72
X90.891Y-107.0
X90.891Y-114.62
X95.654Y-40.325
X95.654Y-47.945
X95.654Y-68.9
X95.654Y-76.52
X100.416Y-126.05
X100.416Y-133.67
X105.179Y-87.95
X105.179Y-95.57
X109.941Y-107.0
X109.941Y-114.62
X109.941Y-145.1
X109.941Y-152.72
X114.704Y-40.325
X114.704Y-47.945
X114.704Y-68.9
X114.704Y-76.52
X119.466Y-126.05
X119.466Y-133.67
X124.229Y-87.95
X124.229Y-95.57
X128.991Y-107.0
X128.991Y-114.62
X133.754Y-40.325
X133.754Y-47.945
X133.754Y-68.9
X133.754Y-76.52
X138.516Y-126.05
X138.516Y-133.67
X143.279Y-87.95
X143.279Y-95.57
X148.041Y-107.0
X148.041Y-114.62
X152.804Y-40.325
X152.804Y-47.945
X152.804Y-68.9
X152.804Y-76.52
X157.566Y-126.05
X157.566Y-133.67
X162.329Y-87.95
X162.329Y-95.57
X167.091Y-107.0
X167.091Y-114.62
X171.854Y-68.9
X171.854Y-76.52
X176.616Y-126.05
X176.616Y-133.67
X181.379Y-40.325
X181.379Y-47.945
X181.379Y-87.95
X181.379Y-95.57
X186.141Y-107.0
X186.141Y-114.62
X190.904Y-68.9
X190.904Y-76.52
X195.666Y-126.05
X195.666Y-133.67
X200.429Y-40.325
X200.429Y-47.945
X200.429Y-87.95
X200.429Y-95.57
X205.191Y-107.0
X205.191Y-114.62
X209.954Y-68.9
X209.954Y-76.52
X214.716Y-126.05
X214.716Y-133.67
X219.479Y-40.325
X219.479Y-47.945
X219.479Y-87.95
X219.479Y-95.57
X224.241Y-107.0
X224.241Y-114.62
X229.004Y-68.9
X229.004Y-76.52
X229.004Y-145.1
X229.004Y-152.72
X233.766Y-126.05
X233.766Y-133.67
X238.529Y-40.325
X238.529Y-47.945
X238.529Y-87.95
X238.529Y-95.57
X243.291Y-107.0
X243.291Y-114.62
X248.054Y-68.9
X248.054Y-76.52
X252.816Y-126.05
X252.816Y-133.67
X252.816Y-145.1
X252.816Y-152.72
X257.579Y-87.95
X257.579Y-95.57
X262.341Y-107.0
X262.341Y-114.62
X267.104Y-40.325
X267.104Y-47.945
X267.104Y-68.9
X267.104Y-76.52
X271.866Y-126.05
X271.866Y-133.67
X276.629Y-87.95
X276.629Y-95.57
X276.629Y-145.1
X276.629Y-152.72
X281.391Y-107.0
X281.391Y-114.62
X286.154Y-40.325
X286.154Y-47.945
X286.154Y-68.9
X286.154Y-76.52
X295.679Y-87.95
X295.679Y-95.57
X300.441Y-145.1
X300.441Y-152.72
X305.204Y-40.325
X305.204Y-47.945
X324.254Y-40.325
X324.254Y-47.945
X324.254Y-68.9
X324.254Y-76.52
X324.254Y-87.95
X324.254Y-95.57
X324.254Y-107.0
X324.254Y-114.62
X324.254Y-126.05
X324.254Y-133.67
X324.254Y-145.1
X324.254Y-152.72
X352.829Y-68.9
X352.829Y-76.52
X352.829Y-145.1
X352.829Y-152.72
X353.755Y-40.75
X353.755Y-48.37
X371.879Y-68.9
X371.879Y-76.52
X371.879Y-126.05
X371.879Y-133.67
X371.879Y-145.1
X371.879Y-152.72
X375.175Y-40.69
X375.175Y-48.31
X390.929Y-68.9
X390.929Y-76.52
X390.929Y-145.1
X390.929Y-152.72
X396.685Y-40.48
X396.685Y-48.1
T3
X335.804Y-40.325
X335.804Y-42.825
X335.804Y-45.325
X350.304Y-40.325
X350.304Y-45.325
X357.235Y-40.325
X357.235Y-42.825
X357.235Y-45.325
X371.735Y-40.325
X371.735Y-45.325
X378.666Y-40.325
X378.666Y-42.825
X378.666Y-45.325
X393.166Y-40.325
X393.166Y-45.325
T4
X353.146Y-93.189
X353.146Y-110.969
X353.376Y-99.539
X353.376Y-102.079
X353.376Y-104.619
X355.686Y-93.189
X355.686Y-110.969
X358.226Y-93.189
X358.226Y-110.969
X360.766Y-93.189
X360.766Y-110.969
X363.306Y-93.189
X363.306Y-110.969
X365.846Y-93.189
X365.846Y-110.969
X368.386Y-93.189
X368.386Y-110.969
X370.926Y-93.189
X370.926Y-110.969
X373.466Y-93.189
X373.466Y-110.969
X376.006Y-93.189
X376.006Y-110.969
X378.546Y-93.189
X378.546Y-110.969
X381.086Y-93.189
X381.086Y-110.969
X383.626Y-93.189
X383.626Y-110.969
X386.166Y-93.189
X386.166Y-110.969
X388.706Y-93.189
X388.706Y-110.969
X391.246Y-93.189
X391.246Y-110.969
X393.786Y-93.189
X393.786Y-110.969
X396.326Y-93.189
X396.326Y-110.969
X398.866Y-93.189
X398.866Y-110.969
X401.406Y-93.189
X401.406Y-110.969
T5
X44.038Y-71.41
X44.06Y-42.865
X46.345Y-147.71
X48.655Y-90.515
X50.387Y-68.87
X50.41Y-40.325
X51.045Y-109.555
X52.695Y-145.17
X55.005Y-87.975
X55.855Y-128.66
X57.395Y-107.015
X62.205Y-126.12
X63.11Y-71.44
X69.46Y-68.9
X70.067Y-147.68
X72.405Y-90.505
X76.417Y-145.14
X77.397Y-109.54
X78.755Y-87.965
X82.16Y-42.865
X82.16Y-71.44
X83.748Y-107.0
X86.922Y-128.59
X88.51Y-40.325
X88.51Y-68.9
X91.445Y-90.505
X93.272Y-126.05
X93.907Y-147.68
X96.447Y-109.54
X97.795Y-87.965
X100.257Y-145.14
X101.21Y-42.865
X101.21Y-71.44
X102.797Y-107.0
X105.972Y-128.59
X107.56Y-40.325
X107.56Y-68.9
X110.525Y-90.485
X112.322Y-126.05
X115.497Y-109.54
X116.875Y-87.945
X120.26Y-42.865
X120.26Y-71.44
X121.847Y-107.0
X125.022Y-128.59
X126.61Y-40.325
X126.61Y-68.9
X129.595Y-90.525
X131.373Y-126.05
X134.547Y-109.54
X135.945Y-87.985
X139.305Y-71.465
X139.31Y-42.865
X140.897Y-107.0
X144.072Y-128.59
X145.655Y-68.925
X145.66Y-40.325
X148.675Y-90.515
X150.422Y-126.05
X153.597Y-109.54
X155.025Y-87.975
X158.36Y-71.44
X159.947Y-107.0
X163.123Y-128.59
X164.71Y-68.9
X165.425Y-147.66
X167.745Y-90.515
X167.885Y-42.865
X169.472Y-126.05
X171.775Y-145.12
X172.647Y-109.54
X174.095Y-87.975
X174.235Y-40.325
X177.41Y-71.44
X178.998Y-107.0
X182.172Y-128.59
X183.76Y-68.9
X186.785Y-90.505
X186.935Y-42.865
X188.522Y-126.05
X191.697Y-109.54
X193.135Y-87.965
X193.285Y-40.325
X196.46Y-71.44
X198.047Y-107.0
X201.222Y-128.59
X202.81Y-68.9
X205.855Y-90.505
X205.985Y-42.865
X207.572Y-126.05
X210.748Y-109.54
X212.205Y-87.965
X212.335Y-40.325
X215.51Y-71.44
X217.097Y-107.0
X220.272Y-128.59
X221.86Y-68.9
X224.945Y-90.495
X225.035Y-42.865
X226.623Y-126.05
X229.797Y-109.54
X231.295Y-87.955
X231.385Y-40.325
X234.56Y-71.44
X236.147Y-107.0
X236.907Y-147.64
X239.322Y-128.59
X240.91Y-68.9
X243.257Y-145.1
X244.005Y-90.495
X245.672Y-126.05
X248.847Y-109.54
X250.355Y-87.955
X253.61Y-42.865
X253.61Y-71.44
X255.197Y-107.0
X258.373Y-128.59
X259.96Y-40.325
X259.96Y-68.9
X260.757Y-147.62
X263.095Y-90.485
X264.722Y-126.05
X267.108Y-145.08
X267.897Y-109.54
X269.445Y-87.945
X272.66Y-42.865
X272.66Y-71.44
X274.248Y-107.0
X279.01Y-40.325
X279.01Y-68.9
X282.165Y-90.485
X284.537Y-147.6
X288.515Y-87.945
X290.887Y-145.06
X291.71Y-42.865
X294.065Y-128.58
X298.06Y-40.325
X298.825Y-109.54
X300.415Y-126.04
X303.755Y-66.33
X305.175Y-107.0
X305.995Y-90.455
X308.377Y-147.61
X310.105Y-63.79
X310.76Y-42.865
X312.345Y-87.915
X314.727Y-145.07
X317.11Y-40.325
X339.335Y-71.44
X339.335Y-147.64
X345.685Y-68.9
X345.685Y-145.1
X358.385Y-71.44
X358.385Y-128.59
X358.385Y-147.64
X364.735Y-68.9
X364.735Y-126.05
X364.735Y-145.1
X377.435Y-71.44
X377.435Y-147.64
X383.785Y-68.9
X383.785Y-145.1
T6
X343.304Y-37.225
X343.304Y-48.425
X364.735Y-37.225
X364.735Y-48.425
X386.166Y-37.225
X386.166Y-48.425
M30
