%TF.GenerationSoftware,KiCad,Pcbnew,9.0.2*%
%TF.CreationDate,2025-06-10T11:05:31+05:30*%
%TF.ProjectId,RoyBoard,526f7942-6f61-4726-942e-6b696361645f,rev?*%
%TF.SameCoordinates,Original*%
%TF.FileFunction,Soldermask,Top*%
%TF.FilePolarity,Negative*%
%FSLAX46Y46*%
G04 Gerber Fmt 4.6, Leading zero omitted, Abs format (unit mm)*
G04 Created by KiCad (PCBNEW 9.0.2) date 2025-06-10 11:05:31*
%MOMM*%
%LPD*%
G01*
G04 APERTURE LIST*
%ADD10C,3.050000*%
%ADD11C,4.000000*%
%ADD12C,1.700000*%
%ADD13C,2.200000*%
%ADD14C,1.750000*%
%ADD15C,2.500000*%
%ADD16R,1.600000X0.850000*%
%ADD17R,2.000000X2.000000*%
%ADD18C,2.000000*%
%ADD19C,2.800000*%
%ADD20R,1.600000X1.600000*%
%ADD21O,1.600000X1.600000*%
%ADD22O,1.800000X1.800000*%
%ADD23O,1.500000X1.500000*%
%ADD24O,1.700000X1.700000*%
%ADD25R,1.700000X1.700000*%
G04 APERTURE END LIST*
D10*
%TO.C,SW70*%
X119235000Y-143200000D03*
D11*
X119235000Y-158440000D03*
D12*
X164155000Y-150200000D03*
D11*
X169235000Y-150200000D03*
D12*
X174315000Y-150200000D03*
D10*
X219235000Y-143200000D03*
D11*
X219235000Y-158440000D03*
D13*
X171775000Y-145120000D03*
X165425000Y-147660000D03*
%TD*%
D12*
%TO.C,SW10*%
X252340000Y-45405000D03*
D11*
X257420000Y-45405000D03*
D12*
X262500000Y-45405000D03*
D13*
X259960000Y-40325000D03*
X253610000Y-42865000D03*
%TD*%
D14*
%TO.C,SW27*%
X302485000Y-68870000D03*
D11*
X307565000Y-68870000D03*
D14*
X312645000Y-68870000D03*
D15*
X303755000Y-66330000D03*
X310105000Y-63790000D03*
%TD*%
D12*
%TO.C,SW58*%
X123752500Y-131130000D03*
D11*
X128832500Y-131130000D03*
D12*
X133912500Y-131130000D03*
D13*
X131372500Y-126050000D03*
X125022500Y-128590000D03*
%TD*%
D14*
%TO.C,SW73*%
X283267500Y-150140000D03*
D11*
X288347500Y-150140000D03*
D14*
X293427500Y-150140000D03*
D15*
X284537500Y-147600000D03*
X290887500Y-145060000D03*
%TD*%
D16*
%TO.C,D86*%
X46278750Y-58976250D03*
X46278750Y-60726250D03*
X49778750Y-60726250D03*
X49778750Y-58976250D03*
%TD*%
D12*
%TO.C,SW57*%
X104702500Y-131130000D03*
D11*
X109782500Y-131130000D03*
D12*
X114862500Y-131130000D03*
D13*
X112322500Y-126050000D03*
X105972500Y-128590000D03*
%TD*%
D12*
%TO.C,SW61*%
X180902500Y-131130000D03*
D11*
X185982500Y-131130000D03*
D12*
X191062500Y-131130000D03*
D13*
X188522500Y-126050000D03*
X182172500Y-128590000D03*
%TD*%
D12*
%TO.C,SW53*%
X266627500Y-112080000D03*
D11*
X271707500Y-112080000D03*
D12*
X276787500Y-112080000D03*
D13*
X274247500Y-107000000D03*
X267897500Y-109540000D03*
%TD*%
D14*
%TO.C,SW41*%
X304725000Y-92995000D03*
D11*
X309805000Y-92995000D03*
D14*
X314885000Y-92995000D03*
D15*
X305995000Y-90455000D03*
X312345000Y-87915000D03*
%TD*%
D12*
%TO.C,SW80*%
X357115000Y-150180000D03*
D11*
X362195000Y-150180000D03*
D12*
X367275000Y-150180000D03*
D13*
X364735000Y-145100000D03*
X358385000Y-147640000D03*
%TD*%
D12*
%TO.C,SW78*%
X357115000Y-131130000D03*
D11*
X362195000Y-131130000D03*
D12*
X367275000Y-131130000D03*
D13*
X364735000Y-126050000D03*
X358385000Y-128590000D03*
%TD*%
D12*
%TO.C,SW43*%
X76127500Y-112080000D03*
D11*
X81207500Y-112080000D03*
D12*
X86287500Y-112080000D03*
D13*
X83747500Y-107000000D03*
X77397500Y-109540000D03*
%TD*%
D12*
%TO.C,SW40*%
X280895000Y-93025000D03*
D11*
X285975000Y-93025000D03*
D12*
X291055000Y-93025000D03*
D13*
X288515000Y-87945000D03*
X282165000Y-90485000D03*
%TD*%
D12*
%TO.C,SW24*%
X233290000Y-73980000D03*
D11*
X238370000Y-73980000D03*
D12*
X243450000Y-73980000D03*
D13*
X240910000Y-68900000D03*
X234560000Y-71440000D03*
%TD*%
D12*
%TO.C,SW14*%
X42767500Y-73950000D03*
D11*
X47847500Y-73950000D03*
D12*
X52927500Y-73950000D03*
D13*
X50387500Y-68870000D03*
X44037500Y-71410000D03*
%TD*%
D12*
%TO.C,SW46*%
X133277500Y-112080000D03*
D11*
X138357500Y-112080000D03*
D12*
X143437500Y-112080000D03*
D13*
X140897500Y-107000000D03*
X134547500Y-109540000D03*
%TD*%
D12*
%TO.C,SW33*%
X147405000Y-93055000D03*
D11*
X152485000Y-93055000D03*
D12*
X157565000Y-93055000D03*
D13*
X155025000Y-87975000D03*
X148675000Y-90515000D03*
%TD*%
D12*
%TO.C,SW31*%
X109255000Y-93025000D03*
D11*
X114335000Y-93025000D03*
D12*
X119415000Y-93025000D03*
D13*
X116875000Y-87945000D03*
X110525000Y-90485000D03*
%TD*%
D10*
%TO.C,SW54*%
X290735000Y-105080000D03*
D11*
X290735000Y-120320000D03*
D12*
X297555000Y-112080000D03*
D11*
X302635000Y-112080000D03*
D12*
X307715000Y-112080000D03*
D10*
X314535000Y-105080000D03*
D11*
X314535000Y-120320000D03*
D13*
X305175000Y-107000000D03*
X298825000Y-109540000D03*
%TD*%
D12*
%TO.C,SW30*%
X90175000Y-93045000D03*
D11*
X95255000Y-93045000D03*
D12*
X100335000Y-93045000D03*
D13*
X97795000Y-87965000D03*
X91445000Y-90505000D03*
%TD*%
D12*
%TO.C,SW19*%
X138035000Y-74005000D03*
D11*
X143115000Y-74005000D03*
D12*
X148195000Y-74005000D03*
D13*
X145655000Y-68925000D03*
X139305000Y-71465000D03*
%TD*%
D12*
%TO.C,SW47*%
X152327500Y-112080000D03*
D11*
X157407500Y-112080000D03*
D12*
X162487500Y-112080000D03*
D13*
X159947500Y-107000000D03*
X153597500Y-109540000D03*
%TD*%
D17*
%TO.C,SW84*%
X378666250Y-40325000D03*
D18*
X378666250Y-45325000D03*
X378666250Y-42825000D03*
D19*
X386166250Y-37225000D03*
X386166250Y-48425000D03*
D18*
X393166250Y-40325000D03*
X393166250Y-45325000D03*
%TD*%
D12*
%TO.C,SW1*%
X42790000Y-45405000D03*
D11*
X47870000Y-45405000D03*
D12*
X52950000Y-45405000D03*
D13*
X50410000Y-40325000D03*
X44060000Y-42865000D03*
%TD*%
D12*
%TO.C,SW81*%
X376165000Y-150180000D03*
D11*
X381245000Y-150180000D03*
D12*
X386325000Y-150180000D03*
D13*
X383785000Y-145100000D03*
X377435000Y-147640000D03*
%TD*%
D12*
%TO.C,SW75*%
X338065000Y-73980000D03*
D11*
X343145000Y-73980000D03*
D12*
X348225000Y-73980000D03*
D13*
X345685000Y-68900000D03*
X339335000Y-71440000D03*
%TD*%
D16*
%TO.C,D85*%
X362985000Y-106601250D03*
X362985000Y-108351250D03*
X366485000Y-108351250D03*
X366485000Y-106601250D03*
%TD*%
D12*
%TO.C,SW44*%
X95177500Y-112080000D03*
D11*
X100257500Y-112080000D03*
D12*
X105337500Y-112080000D03*
D13*
X102797500Y-107000000D03*
X96447500Y-109540000D03*
%TD*%
D12*
%TO.C,SW25*%
X252340000Y-73980000D03*
D11*
X257420000Y-73980000D03*
D12*
X262500000Y-73980000D03*
D13*
X259960000Y-68900000D03*
X253610000Y-71440000D03*
%TD*%
D12*
%TO.C,SW3*%
X99940000Y-45405000D03*
D11*
X105020000Y-45405000D03*
D12*
X110100000Y-45405000D03*
D13*
X107560000Y-40325000D03*
X101210000Y-42865000D03*
%TD*%
D12*
%TO.C,SW35*%
X185515000Y-93045000D03*
D11*
X190595000Y-93045000D03*
D12*
X195675000Y-93045000D03*
D13*
X193135000Y-87965000D03*
X186785000Y-90505000D03*
%TD*%
D12*
%TO.C,SW56*%
X85652500Y-131130000D03*
D11*
X90732500Y-131130000D03*
D12*
X95812500Y-131130000D03*
D13*
X93272500Y-126050000D03*
X86922500Y-128590000D03*
%TD*%
D12*
%TO.C,SW67*%
X45075000Y-150250000D03*
D11*
X50155000Y-150250000D03*
D12*
X55235000Y-150250000D03*
D13*
X52695000Y-145170000D03*
X46345000Y-147710000D03*
%TD*%
D16*
%TO.C,D90*%
X167865000Y-162715000D03*
X167865000Y-164465000D03*
X171365000Y-164465000D03*
X171365000Y-162715000D03*
%TD*%
D12*
%TO.C,SW60*%
X161852500Y-131130000D03*
D11*
X166932500Y-131130000D03*
D12*
X172012500Y-131130000D03*
D13*
X169472500Y-126050000D03*
X163122500Y-128590000D03*
%TD*%
D12*
%TO.C,SW7*%
X185665000Y-45405000D03*
D11*
X190745000Y-45405000D03*
D12*
X195825000Y-45405000D03*
D13*
X193285000Y-40325000D03*
X186935000Y-42865000D03*
%TD*%
D12*
%TO.C,SW2*%
X80890000Y-45405000D03*
D11*
X85970000Y-45405000D03*
D12*
X91050000Y-45405000D03*
D13*
X88510000Y-40325000D03*
X82160000Y-42865000D03*
%TD*%
D12*
%TO.C,SW77*%
X376165000Y-73980000D03*
D11*
X381245000Y-73980000D03*
D12*
X386325000Y-73980000D03*
D13*
X383785000Y-68900000D03*
X377435000Y-71440000D03*
%TD*%
D14*
%TO.C,SW72*%
X259487500Y-150160000D03*
D11*
X264567500Y-150160000D03*
D14*
X269647500Y-150160000D03*
D15*
X260757500Y-147620000D03*
X267107500Y-145080000D03*
%TD*%
D14*
%TO.C,SW42*%
X49775000Y-112095000D03*
D11*
X54855000Y-112095000D03*
D14*
X59935000Y-112095000D03*
D15*
X51045000Y-109555000D03*
X57395000Y-107015000D03*
%TD*%
D12*
%TO.C,SW79*%
X338065000Y-150180000D03*
D11*
X343145000Y-150180000D03*
D12*
X348225000Y-150180000D03*
D13*
X345685000Y-145100000D03*
X339335000Y-147640000D03*
%TD*%
D12*
%TO.C,SW13*%
X309490000Y-45405000D03*
D11*
X314570000Y-45405000D03*
D12*
X319650000Y-45405000D03*
D13*
X317110000Y-40325000D03*
X310760000Y-42865000D03*
%TD*%
D14*
%TO.C,SW28*%
X47385000Y-93055000D03*
D11*
X52465000Y-93055000D03*
D14*
X57545000Y-93055000D03*
D15*
X48655000Y-90515000D03*
X55005000Y-87975000D03*
%TD*%
D12*
%TO.C,SW9*%
X223765000Y-45405000D03*
D11*
X228845000Y-45405000D03*
D12*
X233925000Y-45405000D03*
D13*
X231385000Y-40325000D03*
X225035000Y-42865000D03*
%TD*%
D12*
%TO.C,SW18*%
X118990000Y-73980000D03*
D11*
X124070000Y-73980000D03*
D12*
X129150000Y-73980000D03*
D13*
X126610000Y-68900000D03*
X120260000Y-71440000D03*
%TD*%
D12*
%TO.C,SW12*%
X290440000Y-45405000D03*
D11*
X295520000Y-45405000D03*
D12*
X300600000Y-45405000D03*
D13*
X298060000Y-40325000D03*
X291710000Y-42865000D03*
%TD*%
D12*
%TO.C,SW50*%
X209477500Y-112080000D03*
D11*
X214557500Y-112080000D03*
D12*
X219637500Y-112080000D03*
D13*
X217097500Y-107000000D03*
X210747500Y-109540000D03*
%TD*%
D12*
%TO.C,SW63*%
X219002500Y-131130000D03*
D11*
X224082500Y-131130000D03*
D12*
X229162500Y-131130000D03*
D13*
X226622500Y-126050000D03*
X220272500Y-128590000D03*
%TD*%
D12*
%TO.C,SW59*%
X142802500Y-131130000D03*
D11*
X147882500Y-131130000D03*
D12*
X152962500Y-131130000D03*
D13*
X150422500Y-126050000D03*
X144072500Y-128590000D03*
%TD*%
D12*
%TO.C,SW21*%
X176140000Y-73980000D03*
D11*
X181220000Y-73980000D03*
D12*
X186300000Y-73980000D03*
D13*
X183760000Y-68900000D03*
X177410000Y-71440000D03*
%TD*%
D16*
%TO.C,D89*%
X284403750Y-58976250D03*
X284403750Y-60726250D03*
X287903750Y-60726250D03*
X287903750Y-58976250D03*
%TD*%
%TO.C,D88*%
X198678750Y-58976250D03*
X198678750Y-60726250D03*
X202178750Y-60726250D03*
X202178750Y-58976250D03*
%TD*%
D12*
%TO.C,SW16*%
X80890000Y-73980000D03*
D11*
X85970000Y-73980000D03*
D12*
X91050000Y-73980000D03*
D13*
X88510000Y-68900000D03*
X82160000Y-71440000D03*
%TD*%
D12*
%TO.C,SW29*%
X71135000Y-93045000D03*
D11*
X76215000Y-93045000D03*
D12*
X81295000Y-93045000D03*
D13*
X78755000Y-87965000D03*
X72405000Y-90505000D03*
%TD*%
D14*
%TO.C,SW68*%
X68797500Y-150220000D03*
D11*
X73877500Y-150220000D03*
D14*
X78957500Y-150220000D03*
D15*
X70067500Y-147680000D03*
X76417500Y-145140000D03*
%TD*%
D14*
%TO.C,SW74*%
X307107500Y-150150000D03*
D11*
X312187500Y-150150000D03*
D14*
X317267500Y-150150000D03*
D15*
X308377500Y-147610000D03*
X314727500Y-145070000D03*
%TD*%
D12*
%TO.C,SW65*%
X257102500Y-131130000D03*
D11*
X262182500Y-131130000D03*
D12*
X267262500Y-131130000D03*
D13*
X264722500Y-126050000D03*
X258372500Y-128590000D03*
%TD*%
D12*
%TO.C,SW49*%
X190427500Y-112080000D03*
D11*
X195507500Y-112080000D03*
D12*
X200587500Y-112080000D03*
D13*
X198047500Y-107000000D03*
X191697500Y-109540000D03*
%TD*%
D12*
%TO.C,SW34*%
X166475000Y-93055000D03*
D11*
X171555000Y-93055000D03*
D12*
X176635000Y-93055000D03*
D13*
X174095000Y-87975000D03*
X167745000Y-90515000D03*
%TD*%
D12*
%TO.C,SW37*%
X223675000Y-93035000D03*
D11*
X228755000Y-93035000D03*
D12*
X233835000Y-93035000D03*
D13*
X231295000Y-87955000D03*
X224945000Y-90495000D03*
%TD*%
D12*
%TO.C,SW38*%
X242735000Y-93035000D03*
D11*
X247815000Y-93035000D03*
D12*
X252895000Y-93035000D03*
D13*
X250355000Y-87955000D03*
X244005000Y-90495000D03*
%TD*%
D12*
%TO.C,SW45*%
X114227500Y-112080000D03*
D11*
X119307500Y-112080000D03*
D12*
X124387500Y-112080000D03*
D13*
X121847500Y-107000000D03*
X115497500Y-109540000D03*
%TD*%
D10*
%TO.C,SW66*%
X285975000Y-124120000D03*
D11*
X285975000Y-139360000D03*
D12*
X292795000Y-131120000D03*
D11*
X297875000Y-131120000D03*
D12*
X302955000Y-131120000D03*
D10*
X309775000Y-124120000D03*
D11*
X309775000Y-139360000D03*
D13*
X300415000Y-126040000D03*
X294065000Y-128580000D03*
%TD*%
D12*
%TO.C,SW17*%
X99940000Y-73980000D03*
D11*
X105020000Y-73980000D03*
D12*
X110100000Y-73980000D03*
D13*
X107560000Y-68900000D03*
X101210000Y-71440000D03*
%TD*%
D12*
%TO.C,SW64*%
X238052500Y-131130000D03*
D11*
X243132500Y-131130000D03*
D12*
X248212500Y-131130000D03*
D13*
X245672500Y-126050000D03*
X239322500Y-128590000D03*
%TD*%
D16*
%TO.C,D87*%
X112953750Y-58976250D03*
X112953750Y-60726250D03*
X116453750Y-60726250D03*
X116453750Y-58976250D03*
%TD*%
D17*
%TO.C,SW83*%
X357235000Y-40325000D03*
D18*
X357235000Y-45325000D03*
X357235000Y-42825000D03*
D19*
X364735000Y-37225000D03*
X364735000Y-48425000D03*
D18*
X371735000Y-40325000D03*
X371735000Y-45325000D03*
%TD*%
D12*
%TO.C,SW6*%
X166615000Y-45405000D03*
D11*
X171695000Y-45405000D03*
D12*
X176775000Y-45405000D03*
D13*
X174235000Y-40325000D03*
X167885000Y-42865000D03*
%TD*%
D12*
%TO.C,SW15*%
X61840000Y-73980000D03*
D11*
X66920000Y-73980000D03*
D12*
X72000000Y-73980000D03*
D13*
X69460000Y-68900000D03*
X63110000Y-71440000D03*
%TD*%
D12*
%TO.C,SW26*%
X271390000Y-73980000D03*
D11*
X276470000Y-73980000D03*
D12*
X281550000Y-73980000D03*
D13*
X279010000Y-68900000D03*
X272660000Y-71440000D03*
%TD*%
D12*
%TO.C,SW8*%
X204715000Y-45405000D03*
D11*
X209795000Y-45405000D03*
D12*
X214875000Y-45405000D03*
D13*
X212335000Y-40325000D03*
X205985000Y-42865000D03*
%TD*%
D14*
%TO.C,SW69*%
X92637500Y-150220000D03*
D11*
X97717500Y-150220000D03*
D14*
X102797500Y-150220000D03*
D15*
X93907500Y-147680000D03*
X100257500Y-145140000D03*
%TD*%
D12*
%TO.C,SW48*%
X171377500Y-112080000D03*
D11*
X176457500Y-112080000D03*
D12*
X181537500Y-112080000D03*
D13*
X178997500Y-107000000D03*
X172647500Y-109540000D03*
%TD*%
D12*
%TO.C,SW39*%
X261825000Y-93025000D03*
D11*
X266905000Y-93025000D03*
D12*
X271985000Y-93025000D03*
D13*
X269445000Y-87945000D03*
X263095000Y-90485000D03*
%TD*%
D12*
%TO.C,SW4*%
X118990000Y-45405000D03*
D11*
X124070000Y-45405000D03*
D12*
X129150000Y-45405000D03*
D13*
X126610000Y-40325000D03*
X120260000Y-42865000D03*
%TD*%
D14*
%TO.C,SW71*%
X235637500Y-150180000D03*
D11*
X240717500Y-150180000D03*
D14*
X245797500Y-150180000D03*
D15*
X236907500Y-147640000D03*
X243257500Y-145100000D03*
%TD*%
D12*
%TO.C,SW52*%
X247577500Y-112080000D03*
D11*
X252657500Y-112080000D03*
D12*
X257737500Y-112080000D03*
D13*
X255197500Y-107000000D03*
X248847500Y-109540000D03*
%TD*%
D12*
%TO.C,SW23*%
X214240000Y-73980000D03*
D11*
X219320000Y-73980000D03*
D12*
X224400000Y-73980000D03*
D13*
X221860000Y-68900000D03*
X215510000Y-71440000D03*
%TD*%
D12*
%TO.C,SW76*%
X357115000Y-73980000D03*
D11*
X362195000Y-73980000D03*
D12*
X367275000Y-73980000D03*
D13*
X364735000Y-68900000D03*
X358385000Y-71440000D03*
%TD*%
D17*
%TO.C,SW82*%
X335803750Y-40325000D03*
D18*
X335803750Y-45325000D03*
X335803750Y-42825000D03*
D19*
X343303750Y-37225000D03*
X343303750Y-48425000D03*
D18*
X350303750Y-40325000D03*
X350303750Y-45325000D03*
%TD*%
D12*
%TO.C,SW22*%
X195190000Y-73980000D03*
D11*
X200270000Y-73980000D03*
D12*
X205350000Y-73980000D03*
D13*
X202810000Y-68900000D03*
X196460000Y-71440000D03*
%TD*%
D12*
%TO.C,SW62*%
X199952500Y-131130000D03*
D11*
X205032500Y-131130000D03*
D12*
X210112500Y-131130000D03*
D13*
X207572500Y-126050000D03*
X201222500Y-128590000D03*
%TD*%
D12*
%TO.C,SW51*%
X228527500Y-112080000D03*
D11*
X233607500Y-112080000D03*
D12*
X238687500Y-112080000D03*
D13*
X236147500Y-107000000D03*
X229797500Y-109540000D03*
%TD*%
D12*
%TO.C,SW20*%
X157090000Y-73980000D03*
D11*
X162170000Y-73980000D03*
D12*
X167250000Y-73980000D03*
D13*
X164710000Y-68900000D03*
X158360000Y-71440000D03*
%TD*%
D10*
%TO.C,SW55*%
X47765000Y-124200000D03*
D11*
X47765000Y-139440000D03*
D12*
X54585000Y-131200000D03*
D11*
X59665000Y-131200000D03*
D12*
X64745000Y-131200000D03*
D10*
X71565000Y-124200000D03*
D11*
X71565000Y-139440000D03*
D13*
X62205000Y-126120000D03*
X55855000Y-128660000D03*
%TD*%
D12*
%TO.C,SW36*%
X204585000Y-93045000D03*
D11*
X209665000Y-93045000D03*
D12*
X214745000Y-93045000D03*
D13*
X212205000Y-87965000D03*
X205855000Y-90505000D03*
%TD*%
D12*
%TO.C,SW11*%
X271390000Y-45405000D03*
D11*
X276470000Y-45405000D03*
D12*
X281550000Y-45405000D03*
D13*
X279010000Y-40325000D03*
X272660000Y-42865000D03*
%TD*%
D12*
%TO.C,SW5*%
X138040000Y-45405000D03*
D11*
X143120000Y-45405000D03*
D12*
X148200000Y-45405000D03*
D13*
X145660000Y-40325000D03*
X139310000Y-42865000D03*
%TD*%
D12*
%TO.C,SW32*%
X128325000Y-93065000D03*
D11*
X133405000Y-93065000D03*
D12*
X138485000Y-93065000D03*
D13*
X135945000Y-87985000D03*
X129595000Y-90525000D03*
%TD*%
D20*
%TO.C,D53*%
X281391250Y-114620000D03*
D21*
X281391250Y-107000000D03*
%TD*%
D20*
%TO.C,D73*%
X300441250Y-152720000D03*
D21*
X300441250Y-145100000D03*
%TD*%
D20*
%TO.C,D2*%
X95653750Y-47945000D03*
D21*
X95653750Y-40325000D03*
%TD*%
D20*
%TO.C,D61*%
X195666250Y-133670000D03*
D21*
X195666250Y-126050000D03*
%TD*%
D20*
%TO.C,D15*%
X76603750Y-76520000D03*
D21*
X76603750Y-68900000D03*
%TD*%
D20*
%TO.C,D39*%
X276628750Y-95570000D03*
D21*
X276628750Y-87950000D03*
%TD*%
D20*
%TO.C,D81*%
X390928750Y-152720000D03*
D21*
X390928750Y-145100000D03*
%TD*%
D20*
%TO.C,D5*%
X152803750Y-47945000D03*
D21*
X152803750Y-40325000D03*
%TD*%
D20*
%TO.C,D44*%
X109941250Y-114620000D03*
D21*
X109941250Y-107000000D03*
%TD*%
D20*
%TO.C,D8*%
X219478750Y-47945000D03*
D21*
X219478750Y-40325000D03*
%TD*%
D20*
%TO.C,D21*%
X190903750Y-76520000D03*
D21*
X190903750Y-68900000D03*
%TD*%
D20*
%TO.C,D77*%
X390928750Y-76520000D03*
D21*
X390928750Y-68900000D03*
%TD*%
D20*
%TO.C,D1*%
X57553750Y-47945000D03*
D21*
X57553750Y-40325000D03*
%TD*%
D20*
%TO.C,D35*%
X200428750Y-95570000D03*
D21*
X200428750Y-87950000D03*
%TD*%
D20*
%TO.C,D10*%
X267103750Y-47945000D03*
D21*
X267103750Y-40325000D03*
%TD*%
D20*
%TO.C,D41*%
X324253750Y-95570000D03*
D21*
X324253750Y-87950000D03*
%TD*%
D20*
%TO.C,D42*%
X71841250Y-114620000D03*
D21*
X71841250Y-107000000D03*
%TD*%
D20*
%TO.C,D23*%
X229003750Y-76520000D03*
D21*
X229003750Y-68900000D03*
%TD*%
D20*
%TO.C,D40*%
X295678750Y-95570000D03*
D21*
X295678750Y-87950000D03*
%TD*%
D20*
%TO.C,D58*%
X138516250Y-133670000D03*
D21*
X138516250Y-126050000D03*
%TD*%
D20*
%TO.C,D60*%
X176616250Y-133670000D03*
D21*
X176616250Y-126050000D03*
%TD*%
D20*
%TO.C,D52*%
X262341250Y-114620000D03*
D21*
X262341250Y-107000000D03*
%TD*%
D20*
%TO.C,D32*%
X143278750Y-95570000D03*
D21*
X143278750Y-87950000D03*
%TD*%
D20*
%TO.C,D74*%
X324253750Y-152720000D03*
D21*
X324253750Y-145100000D03*
%TD*%
D20*
%TO.C,D26*%
X286153750Y-76520000D03*
D21*
X286153750Y-68900000D03*
%TD*%
D20*
%TO.C,D64*%
X252816250Y-133670000D03*
D21*
X252816250Y-126050000D03*
%TD*%
D20*
%TO.C,D17*%
X114703750Y-76520000D03*
D21*
X114703750Y-68900000D03*
%TD*%
D20*
%TO.C,D6*%
X181378750Y-47945000D03*
D21*
X181378750Y-40325000D03*
%TD*%
D20*
%TO.C,D27*%
X324253750Y-76520000D03*
D21*
X324253750Y-68900000D03*
%TD*%
D20*
%TO.C,D62*%
X214716250Y-133670000D03*
D21*
X214716250Y-126050000D03*
%TD*%
D20*
%TO.C,D12*%
X305203750Y-47945000D03*
D21*
X305203750Y-40325000D03*
%TD*%
D20*
%TO.C,D84*%
X396685000Y-48100000D03*
D21*
X396685000Y-40480000D03*
%TD*%
D20*
%TO.C,D20*%
X171853750Y-76520000D03*
D21*
X171853750Y-68900000D03*
%TD*%
D20*
%TO.C,D63*%
X233766250Y-133670000D03*
D21*
X233766250Y-126050000D03*
%TD*%
D20*
%TO.C,D38*%
X257578750Y-95570000D03*
D21*
X257578750Y-87950000D03*
%TD*%
D20*
%TO.C,D78*%
X371878750Y-133670000D03*
D21*
X371878750Y-126050000D03*
%TD*%
D20*
%TO.C,D67*%
X62316250Y-152720000D03*
D21*
X62316250Y-145100000D03*
%TD*%
D20*
%TO.C,D83*%
X353755000Y-48370000D03*
D21*
X353755000Y-40750000D03*
%TD*%
D20*
%TO.C,D22*%
X209953750Y-76520000D03*
D21*
X209953750Y-68900000D03*
%TD*%
D20*
%TO.C,D19*%
X152803750Y-76520000D03*
D21*
X152803750Y-68900000D03*
%TD*%
D20*
%TO.C,D51*%
X243291250Y-114620000D03*
D21*
X243291250Y-107000000D03*
%TD*%
D20*
%TO.C,D76*%
X371878750Y-76520000D03*
D21*
X371878750Y-68900000D03*
%TD*%
D20*
%TO.C,D47*%
X167091250Y-114620000D03*
D21*
X167091250Y-107000000D03*
%TD*%
D20*
%TO.C,D33*%
X162328750Y-95570000D03*
D21*
X162328750Y-87950000D03*
%TD*%
D20*
%TO.C,D18*%
X133753750Y-76520000D03*
D21*
X133753750Y-68900000D03*
%TD*%
D20*
%TO.C,D59*%
X157566250Y-133670000D03*
D21*
X157566250Y-126050000D03*
%TD*%
D20*
%TO.C,D55*%
X81366250Y-133670000D03*
D21*
X81366250Y-126050000D03*
%TD*%
D20*
%TO.C,D50*%
X224241250Y-114620000D03*
D21*
X224241250Y-107000000D03*
%TD*%
D20*
%TO.C,D49*%
X205191250Y-114620000D03*
D21*
X205191250Y-107000000D03*
%TD*%
D20*
%TO.C,D68*%
X86128750Y-152720000D03*
D21*
X86128750Y-145100000D03*
%TD*%
D20*
%TO.C,D7*%
X200428750Y-47945000D03*
D21*
X200428750Y-40325000D03*
%TD*%
D20*
%TO.C,D3*%
X114703750Y-47945000D03*
D21*
X114703750Y-40325000D03*
%TD*%
D20*
%TO.C,D71*%
X252816250Y-152720000D03*
D21*
X252816250Y-145100000D03*
%TD*%
D20*
%TO.C,D57*%
X119466250Y-133670000D03*
D21*
X119466250Y-126050000D03*
%TD*%
D20*
%TO.C,D75*%
X352828750Y-76520000D03*
D21*
X352828750Y-68900000D03*
%TD*%
D20*
%TO.C,D54*%
X324253750Y-114620000D03*
D21*
X324253750Y-107000000D03*
%TD*%
D20*
%TO.C,D9*%
X238528750Y-47945000D03*
D21*
X238528750Y-40325000D03*
%TD*%
D20*
%TO.C,D25*%
X267103750Y-76520000D03*
D21*
X267103750Y-68900000D03*
%TD*%
D20*
%TO.C,D11*%
X286153750Y-47945000D03*
D21*
X286153750Y-40325000D03*
%TD*%
D20*
%TO.C,D16*%
X95653750Y-76520000D03*
D21*
X95653750Y-68900000D03*
%TD*%
D20*
%TO.C,D46*%
X148041250Y-114620000D03*
D21*
X148041250Y-107000000D03*
%TD*%
D20*
%TO.C,D37*%
X238528750Y-95570000D03*
D21*
X238528750Y-87950000D03*
%TD*%
D20*
%TO.C,D65*%
X271866250Y-133670000D03*
D21*
X271866250Y-126050000D03*
%TD*%
D20*
%TO.C,D43*%
X90891250Y-114620000D03*
D21*
X90891250Y-107000000D03*
%TD*%
D20*
%TO.C,D66*%
X324253750Y-133670000D03*
D21*
X324253750Y-126050000D03*
%TD*%
D20*
%TO.C,D29*%
X86128750Y-95570000D03*
D21*
X86128750Y-87950000D03*
%TD*%
D20*
%TO.C,D14*%
X57553750Y-76520000D03*
D21*
X57553750Y-68900000D03*
%TD*%
D20*
%TO.C,D70*%
X229003750Y-152720000D03*
D21*
X229003750Y-145100000D03*
%TD*%
D20*
%TO.C,D31*%
X124228750Y-95570000D03*
D21*
X124228750Y-87950000D03*
%TD*%
D20*
%TO.C,D56*%
X100416250Y-133670000D03*
D21*
X100416250Y-126050000D03*
%TD*%
D20*
%TO.C,D82*%
X375175000Y-48310000D03*
D21*
X375175000Y-40690000D03*
%TD*%
D20*
%TO.C,D69*%
X109941250Y-152720000D03*
D21*
X109941250Y-145100000D03*
%TD*%
D20*
%TO.C,D72*%
X276628750Y-152720000D03*
D21*
X276628750Y-145100000D03*
%TD*%
D20*
%TO.C,D45*%
X128991250Y-114620000D03*
D21*
X128991250Y-107000000D03*
%TD*%
D20*
%TO.C,D48*%
X186141250Y-114620000D03*
D21*
X186141250Y-107000000D03*
%TD*%
D20*
%TO.C,D36*%
X219478750Y-95570000D03*
D21*
X219478750Y-87950000D03*
%TD*%
D20*
%TO.C,D4*%
X133753750Y-47945000D03*
D21*
X133753750Y-40325000D03*
%TD*%
D20*
%TO.C,D28*%
X67078750Y-95570000D03*
D21*
X67078750Y-87950000D03*
%TD*%
D20*
%TO.C,D30*%
X105178750Y-95570000D03*
D21*
X105178750Y-87950000D03*
%TD*%
D20*
%TO.C,D13*%
X324253750Y-47945000D03*
D21*
X324253750Y-40325000D03*
%TD*%
D20*
%TO.C,D24*%
X248053750Y-76520000D03*
D21*
X248053750Y-68900000D03*
%TD*%
D22*
%TO.C,U1*%
X401276250Y-104803750D03*
D23*
X398246250Y-104503750D03*
X398246250Y-99653750D03*
D22*
X401276250Y-99353750D03*
D24*
X401406250Y-110968750D03*
X398866250Y-110968750D03*
D25*
X396326250Y-110968750D03*
D24*
X393786250Y-110968750D03*
X391246250Y-110968750D03*
X388706250Y-110968750D03*
X386166250Y-110968750D03*
D25*
X383626250Y-110968750D03*
D24*
X381086250Y-110968750D03*
X378546250Y-110968750D03*
X376006250Y-110968750D03*
X373466250Y-110968750D03*
D25*
X370926250Y-110968750D03*
D24*
X368386250Y-110968750D03*
X365846250Y-110968750D03*
X363306250Y-110968750D03*
X360766250Y-110968750D03*
D25*
X358226250Y-110968750D03*
D24*
X355686250Y-110968750D03*
X353146250Y-110968750D03*
X353146250Y-93188750D03*
X355686250Y-93188750D03*
D25*
X358226250Y-93188750D03*
D24*
X360766250Y-93188750D03*
X363306250Y-93188750D03*
X365846250Y-93188750D03*
X368386250Y-93188750D03*
D25*
X370926250Y-93188750D03*
D24*
X373466250Y-93188750D03*
X376006250Y-93188750D03*
X378546250Y-93188750D03*
X381086250Y-93188750D03*
D25*
X383626250Y-93188750D03*
D24*
X386166250Y-93188750D03*
X388706250Y-93188750D03*
X391246250Y-93188750D03*
X393786250Y-93188750D03*
D25*
X396326250Y-93188750D03*
D24*
X398866250Y-93188750D03*
X401406250Y-93188750D03*
X353376250Y-104618750D03*
D25*
X353376250Y-102078750D03*
D24*
X353376250Y-99538750D03*
%TD*%
D20*
%TO.C,D34*%
X181378750Y-95570000D03*
D21*
X181378750Y-87950000D03*
%TD*%
D20*
%TO.C,D79*%
X352828750Y-152720000D03*
D21*
X352828750Y-145100000D03*
%TD*%
D20*
%TO.C,D80*%
X371878750Y-152720000D03*
D21*
X371878750Y-145100000D03*
%TD*%
M02*
