%TF.GenerationSoftware,KiCad,Pcbnew,9.0.2*%
%TF.CreationDate,2025-06-10T11:05:30+05:30*%
%TF.ProjectId,RoyBoard,526f7942-6f61-4726-942e-6b696361645f,rev?*%
%TF.SameCoordinates,Original*%
%TF.FileFunction,Copper,L2,Bot*%
%TF.FilePolarity,Positive*%
%FSLAX46Y46*%
G04 Gerber Fmt 4.6, Leading zero omitted, Abs format (unit mm)*
G04 Created by KiCad (PCBNEW 9.0.2) date 2025-06-10 11:05:30*
%MOMM*%
%LPD*%
G01*
G04 APERTURE LIST*
%TA.AperFunction,ComponentPad*%
%ADD10C,2.200000*%
%TD*%
%TA.AperFunction,ComponentPad*%
%ADD11C,2.500000*%
%TD*%
%TA.AperFunction,ComponentPad*%
%ADD12R,2.000000X2.000000*%
%TD*%
%TA.AperFunction,ComponentPad*%
%ADD13C,2.000000*%
%TD*%
%TA.AperFunction,ComponentPad*%
%ADD14C,2.800000*%
%TD*%
%TA.AperFunction,ComponentPad*%
%ADD15R,1.600000X1.600000*%
%TD*%
%TA.AperFunction,ComponentPad*%
%ADD16O,1.600000X1.600000*%
%TD*%
%TA.AperFunction,ComponentPad*%
%ADD17O,1.700000X1.700000*%
%TD*%
%TA.AperFunction,SMDPad,CuDef*%
%ADD18R,1.700000X3.500000*%
%TD*%
%TA.AperFunction,ComponentPad*%
%ADD19R,1.700000X1.700000*%
%TD*%
%TA.AperFunction,SMDPad,CuDef*%
%ADD20R,3.500000X1.700000*%
%TD*%
%TA.AperFunction,ViaPad*%
%ADD21C,0.600000*%
%TD*%
%TA.AperFunction,Conductor*%
%ADD22C,0.200000*%
%TD*%
G04 APERTURE END LIST*
D10*
%TO.P,SW70,1,1*%
%TO.N,col10*%
X171775000Y-145120000D03*
%TO.P,SW70,2,2*%
%TO.N,Net-(D70-A)*%
X165425000Y-147660000D03*
%TD*%
%TO.P,SW10,1,1*%
%TO.N,col10*%
X259960000Y-40325000D03*
%TO.P,SW10,2,2*%
%TO.N,Net-(D10-A)*%
X253610000Y-42865000D03*
%TD*%
D11*
%TO.P,SW27,1,1*%
%TO.N,col3*%
X303755000Y-66330000D03*
%TO.P,SW27,2,2*%
%TO.N,Net-(D27-A)*%
X310105000Y-63790000D03*
%TD*%
D10*
%TO.P,SW58,1,1*%
%TO.N,col10*%
X131372500Y-126050000D03*
%TO.P,SW58,2,2*%
%TO.N,Net-(D58-A)*%
X125022500Y-128590000D03*
%TD*%
D11*
%TO.P,SW73,1,1*%
%TO.N,col1*%
X284537500Y-147600000D03*
%TO.P,SW73,2,2*%
%TO.N,Net-(D73-A)*%
X290887500Y-145060000D03*
%TD*%
D10*
%TO.P,SW57,1,1*%
%TO.N,col9*%
X112322500Y-126050000D03*
%TO.P,SW57,2,2*%
%TO.N,Net-(D57-A)*%
X105972500Y-128590000D03*
%TD*%
%TO.P,SW61,1,1*%
%TO.N,col1*%
X188522500Y-126050000D03*
%TO.P,SW61,2,2*%
%TO.N,Net-(D61-A)*%
X182172500Y-128590000D03*
%TD*%
%TO.P,SW53,1,1*%
%TO.N,col5*%
X274247500Y-107000000D03*
%TO.P,SW53,2,2*%
%TO.N,Net-(D53-A)*%
X267897500Y-109540000D03*
%TD*%
D11*
%TO.P,SW41,1,1*%
%TO.N,col5*%
X305995000Y-90455000D03*
%TO.P,SW41,2,2*%
%TO.N,Net-(D41-A)*%
X312345000Y-87915000D03*
%TD*%
D10*
%TO.P,SW80,1,1*%
%TO.N,col8*%
X364735000Y-145100000D03*
%TO.P,SW80,2,2*%
%TO.N,Net-(D80-A)*%
X358385000Y-147640000D03*
%TD*%
%TO.P,SW78,1,1*%
%TO.N,col6*%
X364735000Y-126050000D03*
%TO.P,SW78,2,2*%
%TO.N,Net-(D78-A)*%
X358385000Y-128590000D03*
%TD*%
%TO.P,SW43,1,1*%
%TO.N,col7*%
X83747500Y-107000000D03*
%TO.P,SW43,2,2*%
%TO.N,Net-(D43-A)*%
X77397500Y-109540000D03*
%TD*%
%TO.P,SW40,1,1*%
%TO.N,col4*%
X288515000Y-87945000D03*
%TO.P,SW40,2,2*%
%TO.N,Net-(D40-A)*%
X282165000Y-90485000D03*
%TD*%
%TO.P,SW24,1,1*%
%TO.N,col12*%
X240910000Y-68900000D03*
%TO.P,SW24,2,2*%
%TO.N,Net-(D24-A)*%
X234560000Y-71440000D03*
%TD*%
%TO.P,SW14,1,1*%
%TO.N,col2*%
X50387500Y-68870000D03*
%TO.P,SW14,2,2*%
%TO.N,Net-(D14-A)*%
X44037500Y-71410000D03*
%TD*%
%TO.P,SW46,1,1*%
%TO.N,col10*%
X140897500Y-107000000D03*
%TO.P,SW46,2,2*%
%TO.N,Net-(D46-A)*%
X134547500Y-109540000D03*
%TD*%
%TO.P,SW33,1,1*%
%TO.N,col9*%
X155025000Y-87975000D03*
%TO.P,SW33,2,2*%
%TO.N,Net-(D33-A)*%
X148675000Y-90515000D03*
%TD*%
%TO.P,SW31,1,1*%
%TO.N,col7*%
X116875000Y-87945000D03*
%TO.P,SW31,2,2*%
%TO.N,Net-(D31-A)*%
X110525000Y-90485000D03*
%TD*%
%TO.P,SW54,1,1*%
%TO.N,col6*%
X305175000Y-107000000D03*
%TO.P,SW54,2,2*%
%TO.N,Net-(D54-A)*%
X298825000Y-109540000D03*
%TD*%
%TO.P,SW30,1,1*%
%TO.N,col6*%
X97795000Y-87965000D03*
%TO.P,SW30,2,2*%
%TO.N,Net-(D30-A)*%
X91445000Y-90505000D03*
%TD*%
%TO.P,SW19,1,1*%
%TO.N,col7*%
X145655000Y-68925000D03*
%TO.P,SW19,2,2*%
%TO.N,Net-(D19-A)*%
X139305000Y-71465000D03*
%TD*%
%TO.P,SW47,1,1*%
%TO.N,col11*%
X159947500Y-107000000D03*
%TO.P,SW47,2,2*%
%TO.N,Net-(D47-A)*%
X153597500Y-109540000D03*
%TD*%
D12*
%TO.P,SW84,A,A*%
%TO.N,ec1_3*%
X378666250Y-40325000D03*
D13*
%TO.P,SW84,B,B*%
%TO.N,ec2_3*%
X378666250Y-45325000D03*
%TO.P,SW84,C,C*%
%TO.N,GND*%
X378666250Y-42825000D03*
D14*
%TO.P,SW84,MP*%
%TO.N,N/C*%
X386166250Y-37225000D03*
X386166250Y-48425000D03*
D13*
%TO.P,SW84,S1,S1*%
%TO.N,col12*%
X393166250Y-40325000D03*
%TO.P,SW84,S2,S2*%
%TO.N,Net-(D84-A)*%
X393166250Y-45325000D03*
%TD*%
D10*
%TO.P,SW1,1,1*%
%TO.N,col1*%
X50410000Y-40325000D03*
%TO.P,SW1,2,2*%
%TO.N,Net-(D1-A)*%
X44060000Y-42865000D03*
%TD*%
%TO.P,SW81,1,1*%
%TO.N,col9*%
X383785000Y-145100000D03*
%TO.P,SW81,2,2*%
%TO.N,Net-(D81-A)*%
X377435000Y-147640000D03*
%TD*%
%TO.P,SW75,1,1*%
%TO.N,col3*%
X345685000Y-68900000D03*
%TO.P,SW75,2,2*%
%TO.N,Net-(D75-A)*%
X339335000Y-71440000D03*
%TD*%
%TO.P,SW44,1,1*%
%TO.N,col8*%
X102797500Y-107000000D03*
%TO.P,SW44,2,2*%
%TO.N,Net-(D44-A)*%
X96447500Y-109540000D03*
%TD*%
%TO.P,SW25,1,1*%
%TO.N,col1*%
X259960000Y-68900000D03*
%TO.P,SW25,2,2*%
%TO.N,Net-(D25-A)*%
X253610000Y-71440000D03*
%TD*%
%TO.P,SW3,1,1*%
%TO.N,col3*%
X107560000Y-40325000D03*
%TO.P,SW3,2,2*%
%TO.N,Net-(D3-A)*%
X101210000Y-42865000D03*
%TD*%
%TO.P,SW35,1,1*%
%TO.N,col11*%
X193135000Y-87965000D03*
%TO.P,SW35,2,2*%
%TO.N,Net-(D35-A)*%
X186785000Y-90505000D03*
%TD*%
%TO.P,SW56,1,1*%
%TO.N,col8*%
X93272500Y-126050000D03*
%TO.P,SW56,2,2*%
%TO.N,Net-(D56-A)*%
X86922500Y-128590000D03*
%TD*%
%TO.P,SW67,1,1*%
%TO.N,col7*%
X52695000Y-145170000D03*
%TO.P,SW67,2,2*%
%TO.N,Net-(D67-A)*%
X46345000Y-147710000D03*
%TD*%
%TO.P,SW60,1,1*%
%TO.N,col12*%
X169472500Y-126050000D03*
%TO.P,SW60,2,2*%
%TO.N,Net-(D60-A)*%
X163122500Y-128590000D03*
%TD*%
%TO.P,SW7,1,1*%
%TO.N,col7*%
X193285000Y-40325000D03*
%TO.P,SW7,2,2*%
%TO.N,Net-(D7-A)*%
X186935000Y-42865000D03*
%TD*%
%TO.P,SW2,1,1*%
%TO.N,col2*%
X88510000Y-40325000D03*
%TO.P,SW2,2,2*%
%TO.N,Net-(D2-A)*%
X82160000Y-42865000D03*
%TD*%
%TO.P,SW77,1,1*%
%TO.N,col5*%
X383785000Y-68900000D03*
%TO.P,SW77,2,2*%
%TO.N,Net-(D77-A)*%
X377435000Y-71440000D03*
%TD*%
D11*
%TO.P,SW72,1,1*%
%TO.N,col12*%
X260757500Y-147620000D03*
%TO.P,SW72,2,2*%
%TO.N,Net-(D72-A)*%
X267107500Y-145080000D03*
%TD*%
%TO.P,SW42,1,1*%
%TO.N,col6*%
X51045000Y-109555000D03*
%TO.P,SW42,2,2*%
%TO.N,Net-(D42-A)*%
X57395000Y-107015000D03*
%TD*%
D10*
%TO.P,SW79,1,1*%
%TO.N,col7*%
X345685000Y-145100000D03*
%TO.P,SW79,2,2*%
%TO.N,Net-(D79-A)*%
X339335000Y-147640000D03*
%TD*%
%TO.P,SW13,1,1*%
%TO.N,col1*%
X317110000Y-40325000D03*
%TO.P,SW13,2,2*%
%TO.N,Net-(D13-A)*%
X310760000Y-42865000D03*
%TD*%
D11*
%TO.P,SW28,1,1*%
%TO.N,col4*%
X48655000Y-90515000D03*
%TO.P,SW28,2,2*%
%TO.N,Net-(D28-A)*%
X55005000Y-87975000D03*
%TD*%
D10*
%TO.P,SW9,1,1*%
%TO.N,col9*%
X231385000Y-40325000D03*
%TO.P,SW9,2,2*%
%TO.N,Net-(D9-A)*%
X225035000Y-42865000D03*
%TD*%
%TO.P,SW18,1,1*%
%TO.N,col6*%
X126610000Y-68900000D03*
%TO.P,SW18,2,2*%
%TO.N,Net-(D18-A)*%
X120260000Y-71440000D03*
%TD*%
%TO.P,SW12,1,1*%
%TO.N,col12*%
X298060000Y-40325000D03*
%TO.P,SW12,2,2*%
%TO.N,Net-(D12-A)*%
X291710000Y-42865000D03*
%TD*%
%TO.P,SW50,1,1*%
%TO.N,col2*%
X217097500Y-107000000D03*
%TO.P,SW50,2,2*%
%TO.N,Net-(D50-A)*%
X210747500Y-109540000D03*
%TD*%
%TO.P,SW63,1,1*%
%TO.N,col3*%
X226622500Y-126050000D03*
%TO.P,SW63,2,2*%
%TO.N,Net-(D63-A)*%
X220272500Y-128590000D03*
%TD*%
%TO.P,SW59,1,1*%
%TO.N,col11*%
X150422500Y-126050000D03*
%TO.P,SW59,2,2*%
%TO.N,Net-(D59-A)*%
X144072500Y-128590000D03*
%TD*%
%TO.P,SW21,1,1*%
%TO.N,col9*%
X183760000Y-68900000D03*
%TO.P,SW21,2,2*%
%TO.N,Net-(D21-A)*%
X177410000Y-71440000D03*
%TD*%
%TO.P,SW16,1,1*%
%TO.N,col4*%
X88510000Y-68900000D03*
%TO.P,SW16,2,2*%
%TO.N,Net-(D16-A)*%
X82160000Y-71440000D03*
%TD*%
%TO.P,SW29,1,1*%
%TO.N,col5*%
X78755000Y-87965000D03*
%TO.P,SW29,2,2*%
%TO.N,Net-(D29-A)*%
X72405000Y-90505000D03*
%TD*%
D11*
%TO.P,SW68,1,1*%
%TO.N,col8*%
X70067500Y-147680000D03*
%TO.P,SW68,2,2*%
%TO.N,Net-(D68-A)*%
X76417500Y-145140000D03*
%TD*%
%TO.P,SW74,1,1*%
%TO.N,col2*%
X308377500Y-147610000D03*
%TO.P,SW74,2,2*%
%TO.N,Net-(D74-A)*%
X314727500Y-145070000D03*
%TD*%
D10*
%TO.P,SW65,1,1*%
%TO.N,col5*%
X264722500Y-126050000D03*
%TO.P,SW65,2,2*%
%TO.N,Net-(D65-A)*%
X258372500Y-128590000D03*
%TD*%
%TO.P,SW49,1,1*%
%TO.N,col1*%
X198047500Y-107000000D03*
%TO.P,SW49,2,2*%
%TO.N,Net-(D49-A)*%
X191697500Y-109540000D03*
%TD*%
%TO.P,SW34,1,1*%
%TO.N,col10*%
X174095000Y-87975000D03*
%TO.P,SW34,2,2*%
%TO.N,Net-(D34-A)*%
X167745000Y-90515000D03*
%TD*%
%TO.P,SW37,1,1*%
%TO.N,col1*%
X231295000Y-87955000D03*
%TO.P,SW37,2,2*%
%TO.N,Net-(D37-A)*%
X224945000Y-90495000D03*
%TD*%
%TO.P,SW38,1,1*%
%TO.N,col2*%
X250355000Y-87955000D03*
%TO.P,SW38,2,2*%
%TO.N,Net-(D38-A)*%
X244005000Y-90495000D03*
%TD*%
%TO.P,SW45,1,1*%
%TO.N,col9*%
X121847500Y-107000000D03*
%TO.P,SW45,2,2*%
%TO.N,Net-(D45-A)*%
X115497500Y-109540000D03*
%TD*%
%TO.P,SW66,1,1*%
%TO.N,col6*%
X300415000Y-126040000D03*
%TO.P,SW66,2,2*%
%TO.N,Net-(D66-A)*%
X294065000Y-128580000D03*
%TD*%
%TO.P,SW17,1,1*%
%TO.N,col5*%
X107560000Y-68900000D03*
%TO.P,SW17,2,2*%
%TO.N,Net-(D17-A)*%
X101210000Y-71440000D03*
%TD*%
%TO.P,SW64,1,1*%
%TO.N,col4*%
X245672500Y-126050000D03*
%TO.P,SW64,2,2*%
%TO.N,Net-(D64-A)*%
X239322500Y-128590000D03*
%TD*%
D12*
%TO.P,SW83,A,A*%
%TO.N,ec1_1*%
X357235000Y-40325000D03*
D13*
%TO.P,SW83,B,B*%
%TO.N,ec2_1*%
X357235000Y-45325000D03*
%TO.P,SW83,C,C*%
%TO.N,GND*%
X357235000Y-42825000D03*
D14*
%TO.P,SW83,MP*%
%TO.N,N/C*%
X364735000Y-37225000D03*
X364735000Y-48425000D03*
D13*
%TO.P,SW83,S1,S1*%
%TO.N,col10*%
X371735000Y-40325000D03*
%TO.P,SW83,S2,S2*%
%TO.N,Net-(D82-A)*%
X371735000Y-45325000D03*
%TD*%
D10*
%TO.P,SW6,1,1*%
%TO.N,col6*%
X174235000Y-40325000D03*
%TO.P,SW6,2,2*%
%TO.N,Net-(D6-A)*%
X167885000Y-42865000D03*
%TD*%
%TO.P,SW15,1,1*%
%TO.N,col3*%
X69460000Y-68900000D03*
%TO.P,SW15,2,2*%
%TO.N,Net-(D15-A)*%
X63110000Y-71440000D03*
%TD*%
%TO.P,SW26,1,1*%
%TO.N,col2*%
X279010000Y-68900000D03*
%TO.P,SW26,2,2*%
%TO.N,Net-(D26-A)*%
X272660000Y-71440000D03*
%TD*%
%TO.P,SW8,1,1*%
%TO.N,col8*%
X212335000Y-40325000D03*
%TO.P,SW8,2,2*%
%TO.N,Net-(D8-A)*%
X205985000Y-42865000D03*
%TD*%
D11*
%TO.P,SW69,1,1*%
%TO.N,col9*%
X93907500Y-147680000D03*
%TO.P,SW69,2,2*%
%TO.N,Net-(D69-A)*%
X100257500Y-145140000D03*
%TD*%
D10*
%TO.P,SW48,1,1*%
%TO.N,col12*%
X178997500Y-107000000D03*
%TO.P,SW48,2,2*%
%TO.N,Net-(D48-A)*%
X172647500Y-109540000D03*
%TD*%
%TO.P,SW39,1,1*%
%TO.N,col3*%
X269445000Y-87945000D03*
%TO.P,SW39,2,2*%
%TO.N,Net-(D39-A)*%
X263095000Y-90485000D03*
%TD*%
%TO.P,SW4,1,1*%
%TO.N,col4*%
X126610000Y-40325000D03*
%TO.P,SW4,2,2*%
%TO.N,Net-(D4-A)*%
X120260000Y-42865000D03*
%TD*%
D11*
%TO.P,SW71,1,1*%
%TO.N,col11*%
X236907500Y-147640000D03*
%TO.P,SW71,2,2*%
%TO.N,Net-(D71-A)*%
X243257500Y-145100000D03*
%TD*%
D10*
%TO.P,SW52,1,1*%
%TO.N,col4*%
X255197500Y-107000000D03*
%TO.P,SW52,2,2*%
%TO.N,Net-(D52-A)*%
X248847500Y-109540000D03*
%TD*%
%TO.P,SW23,1,1*%
%TO.N,col11*%
X221860000Y-68900000D03*
%TO.P,SW23,2,2*%
%TO.N,Net-(D23-A)*%
X215510000Y-71440000D03*
%TD*%
%TO.P,SW76,1,1*%
%TO.N,col4*%
X364735000Y-68900000D03*
%TO.P,SW76,2,2*%
%TO.N,Net-(D76-A)*%
X358385000Y-71440000D03*
%TD*%
D12*
%TO.P,SW82,A,A*%
%TO.N,ec1_2*%
X335803750Y-40325000D03*
D13*
%TO.P,SW82,B,B*%
%TO.N,ec2_2*%
X335803750Y-45325000D03*
%TO.P,SW82,C,C*%
%TO.N,GND*%
X335803750Y-42825000D03*
D14*
%TO.P,SW82,MP*%
%TO.N,N/C*%
X343303750Y-37225000D03*
X343303750Y-48425000D03*
D13*
%TO.P,SW82,S1,S1*%
%TO.N,col11*%
X350303750Y-40325000D03*
%TO.P,SW82,S2,S2*%
%TO.N,Net-(D83-A)*%
X350303750Y-45325000D03*
%TD*%
D10*
%TO.P,SW22,1,1*%
%TO.N,col10*%
X202810000Y-68900000D03*
%TO.P,SW22,2,2*%
%TO.N,Net-(D22-A)*%
X196460000Y-71440000D03*
%TD*%
%TO.P,SW62,1,1*%
%TO.N,col2*%
X207572500Y-126050000D03*
%TO.P,SW62,2,2*%
%TO.N,Net-(D62-A)*%
X201222500Y-128590000D03*
%TD*%
%TO.P,SW51,1,1*%
%TO.N,col3*%
X236147500Y-107000000D03*
%TO.P,SW51,2,2*%
%TO.N,Net-(D51-A)*%
X229797500Y-109540000D03*
%TD*%
%TO.P,SW20,1,1*%
%TO.N,col8*%
X164710000Y-68900000D03*
%TO.P,SW20,2,2*%
%TO.N,Net-(D20-A)*%
X158360000Y-71440000D03*
%TD*%
%TO.P,SW55,1,1*%
%TO.N,col7*%
X62205000Y-126120000D03*
%TO.P,SW55,2,2*%
%TO.N,Net-(D55-A)*%
X55855000Y-128660000D03*
%TD*%
%TO.P,SW36,1,1*%
%TO.N,col12*%
X212205000Y-87965000D03*
%TO.P,SW36,2,2*%
%TO.N,Net-(D36-A)*%
X205855000Y-90505000D03*
%TD*%
%TO.P,SW11,1,1*%
%TO.N,col11*%
X279010000Y-40325000D03*
%TO.P,SW11,2,2*%
%TO.N,Net-(D11-A)*%
X272660000Y-42865000D03*
%TD*%
%TO.P,SW5,1,1*%
%TO.N,col5*%
X145660000Y-40325000D03*
%TO.P,SW5,2,2*%
%TO.N,Net-(D5-A)*%
X139310000Y-42865000D03*
%TD*%
%TO.P,SW32,1,1*%
%TO.N,col8*%
X135945000Y-87985000D03*
%TO.P,SW32,2,2*%
%TO.N,Net-(D32-A)*%
X129595000Y-90525000D03*
%TD*%
D15*
%TO.P,D53,1,K*%
%TO.N,row5*%
X281391250Y-114620000D03*
D16*
%TO.P,D53,2,A*%
%TO.N,Net-(D53-A)*%
X281391250Y-107000000D03*
%TD*%
D15*
%TO.P,D73,1,K*%
%TO.N,row7*%
X300441250Y-152720000D03*
D16*
%TO.P,D73,2,A*%
%TO.N,Net-(D73-A)*%
X300441250Y-145100000D03*
%TD*%
D15*
%TO.P,D2,1,K*%
%TO.N,row1*%
X95653750Y-47945000D03*
D16*
%TO.P,D2,2,A*%
%TO.N,Net-(D2-A)*%
X95653750Y-40325000D03*
%TD*%
D15*
%TO.P,D61,1,K*%
%TO.N,row6*%
X195666250Y-133670000D03*
D16*
%TO.P,D61,2,A*%
%TO.N,Net-(D61-A)*%
X195666250Y-126050000D03*
%TD*%
D15*
%TO.P,D15,1,K*%
%TO.N,row2*%
X76603750Y-76520000D03*
D16*
%TO.P,D15,2,A*%
%TO.N,Net-(D15-A)*%
X76603750Y-68900000D03*
%TD*%
D15*
%TO.P,D39,1,K*%
%TO.N,row4*%
X276628750Y-95570000D03*
D16*
%TO.P,D39,2,A*%
%TO.N,Net-(D39-A)*%
X276628750Y-87950000D03*
%TD*%
D15*
%TO.P,D81,1,K*%
%TO.N,row7*%
X390928750Y-152720000D03*
D16*
%TO.P,D81,2,A*%
%TO.N,Net-(D81-A)*%
X390928750Y-145100000D03*
%TD*%
D15*
%TO.P,D5,1,K*%
%TO.N,row1*%
X152803750Y-47945000D03*
D16*
%TO.P,D5,2,A*%
%TO.N,Net-(D5-A)*%
X152803750Y-40325000D03*
%TD*%
D15*
%TO.P,D44,1,K*%
%TO.N,row4*%
X109941250Y-114620000D03*
D16*
%TO.P,D44,2,A*%
%TO.N,Net-(D44-A)*%
X109941250Y-107000000D03*
%TD*%
D15*
%TO.P,D8,1,K*%
%TO.N,row1*%
X219478750Y-47945000D03*
D16*
%TO.P,D8,2,A*%
%TO.N,Net-(D8-A)*%
X219478750Y-40325000D03*
%TD*%
D15*
%TO.P,D21,1,K*%
%TO.N,row2*%
X190903750Y-76520000D03*
D16*
%TO.P,D21,2,A*%
%TO.N,Net-(D21-A)*%
X190903750Y-68900000D03*
%TD*%
D15*
%TO.P,D77,1,K*%
%TO.N,row7*%
X390928750Y-76520000D03*
D16*
%TO.P,D77,2,A*%
%TO.N,Net-(D77-A)*%
X390928750Y-68900000D03*
%TD*%
D15*
%TO.P,D1,1,K*%
%TO.N,row1*%
X57553750Y-47945000D03*
D16*
%TO.P,D1,2,A*%
%TO.N,Net-(D1-A)*%
X57553750Y-40325000D03*
%TD*%
D15*
%TO.P,D35,1,K*%
%TO.N,row3*%
X200428750Y-95570000D03*
D16*
%TO.P,D35,2,A*%
%TO.N,Net-(D35-A)*%
X200428750Y-87950000D03*
%TD*%
D15*
%TO.P,D10,1,K*%
%TO.N,row1*%
X267103750Y-47945000D03*
D16*
%TO.P,D10,2,A*%
%TO.N,Net-(D10-A)*%
X267103750Y-40325000D03*
%TD*%
D15*
%TO.P,D41,1,K*%
%TO.N,row4*%
X324253750Y-95570000D03*
D16*
%TO.P,D41,2,A*%
%TO.N,Net-(D41-A)*%
X324253750Y-87950000D03*
%TD*%
D15*
%TO.P,D42,1,K*%
%TO.N,row4*%
X71841250Y-114620000D03*
D16*
%TO.P,D42,2,A*%
%TO.N,Net-(D42-A)*%
X71841250Y-107000000D03*
%TD*%
D15*
%TO.P,D23,1,K*%
%TO.N,row2*%
X229003750Y-76520000D03*
D16*
%TO.P,D23,2,A*%
%TO.N,Net-(D23-A)*%
X229003750Y-68900000D03*
%TD*%
D15*
%TO.P,D40,1,K*%
%TO.N,row4*%
X295678750Y-95570000D03*
D16*
%TO.P,D40,2,A*%
%TO.N,Net-(D40-A)*%
X295678750Y-87950000D03*
%TD*%
D15*
%TO.P,D58,1,K*%
%TO.N,row5*%
X138516250Y-133670000D03*
D16*
%TO.P,D58,2,A*%
%TO.N,Net-(D58-A)*%
X138516250Y-126050000D03*
%TD*%
D15*
%TO.P,D60,1,K*%
%TO.N,row5*%
X176616250Y-133670000D03*
D16*
%TO.P,D60,2,A*%
%TO.N,Net-(D60-A)*%
X176616250Y-126050000D03*
%TD*%
D15*
%TO.P,D52,1,K*%
%TO.N,row5*%
X262341250Y-114620000D03*
D16*
%TO.P,D52,2,A*%
%TO.N,Net-(D52-A)*%
X262341250Y-107000000D03*
%TD*%
D15*
%TO.P,D32,1,K*%
%TO.N,row3*%
X143278750Y-95570000D03*
D16*
%TO.P,D32,2,A*%
%TO.N,Net-(D32-A)*%
X143278750Y-87950000D03*
%TD*%
D15*
%TO.P,D74,1,K*%
%TO.N,row7*%
X324253750Y-152720000D03*
D16*
%TO.P,D74,2,A*%
%TO.N,Net-(D74-A)*%
X324253750Y-145100000D03*
%TD*%
D15*
%TO.P,D26,1,K*%
%TO.N,row3*%
X286153750Y-76520000D03*
D16*
%TO.P,D26,2,A*%
%TO.N,Net-(D26-A)*%
X286153750Y-68900000D03*
%TD*%
D15*
%TO.P,D64,1,K*%
%TO.N,row6*%
X252816250Y-133670000D03*
D16*
%TO.P,D64,2,A*%
%TO.N,Net-(D64-A)*%
X252816250Y-126050000D03*
%TD*%
D15*
%TO.P,D17,1,K*%
%TO.N,row2*%
X114703750Y-76520000D03*
D16*
%TO.P,D17,2,A*%
%TO.N,Net-(D17-A)*%
X114703750Y-68900000D03*
%TD*%
D15*
%TO.P,D6,1,K*%
%TO.N,row1*%
X181378750Y-47945000D03*
D16*
%TO.P,D6,2,A*%
%TO.N,Net-(D6-A)*%
X181378750Y-40325000D03*
%TD*%
D15*
%TO.P,D27,1,K*%
%TO.N,row3*%
X324253750Y-76520000D03*
D16*
%TO.P,D27,2,A*%
%TO.N,Net-(D27-A)*%
X324253750Y-68900000D03*
%TD*%
D15*
%TO.P,D62,1,K*%
%TO.N,row6*%
X214716250Y-133670000D03*
D16*
%TO.P,D62,2,A*%
%TO.N,Net-(D62-A)*%
X214716250Y-126050000D03*
%TD*%
D15*
%TO.P,D12,1,K*%
%TO.N,row1*%
X305203750Y-47945000D03*
D16*
%TO.P,D12,2,A*%
%TO.N,Net-(D12-A)*%
X305203750Y-40325000D03*
%TD*%
D15*
%TO.P,D84,1,K*%
%TO.N,row7*%
X396685000Y-48100000D03*
D16*
%TO.P,D84,2,A*%
%TO.N,Net-(D84-A)*%
X396685000Y-40480000D03*
%TD*%
D15*
%TO.P,D20,1,K*%
%TO.N,row2*%
X171853750Y-76520000D03*
D16*
%TO.P,D20,2,A*%
%TO.N,Net-(D20-A)*%
X171853750Y-68900000D03*
%TD*%
D15*
%TO.P,D63,1,K*%
%TO.N,row6*%
X233766250Y-133670000D03*
D16*
%TO.P,D63,2,A*%
%TO.N,Net-(D63-A)*%
X233766250Y-126050000D03*
%TD*%
D15*
%TO.P,D38,1,K*%
%TO.N,row4*%
X257578750Y-95570000D03*
D16*
%TO.P,D38,2,A*%
%TO.N,Net-(D38-A)*%
X257578750Y-87950000D03*
%TD*%
D15*
%TO.P,D78,1,K*%
%TO.N,row7*%
X371878750Y-133670000D03*
D16*
%TO.P,D78,2,A*%
%TO.N,Net-(D78-A)*%
X371878750Y-126050000D03*
%TD*%
D15*
%TO.P,D67,1,K*%
%TO.N,row6*%
X62316250Y-152720000D03*
D16*
%TO.P,D67,2,A*%
%TO.N,Net-(D67-A)*%
X62316250Y-145100000D03*
%TD*%
D15*
%TO.P,D83,1,K*%
%TO.N,row7*%
X353755000Y-48370000D03*
D16*
%TO.P,D83,2,A*%
%TO.N,Net-(D83-A)*%
X353755000Y-40750000D03*
%TD*%
D15*
%TO.P,D22,1,K*%
%TO.N,row2*%
X209953750Y-76520000D03*
D16*
%TO.P,D22,2,A*%
%TO.N,Net-(D22-A)*%
X209953750Y-68900000D03*
%TD*%
D15*
%TO.P,D19,1,K*%
%TO.N,row2*%
X152803750Y-76520000D03*
D16*
%TO.P,D19,2,A*%
%TO.N,Net-(D19-A)*%
X152803750Y-68900000D03*
%TD*%
D15*
%TO.P,D51,1,K*%
%TO.N,row5*%
X243291250Y-114620000D03*
D16*
%TO.P,D51,2,A*%
%TO.N,Net-(D51-A)*%
X243291250Y-107000000D03*
%TD*%
D15*
%TO.P,D76,1,K*%
%TO.N,row7*%
X371878750Y-76520000D03*
D16*
%TO.P,D76,2,A*%
%TO.N,Net-(D76-A)*%
X371878750Y-68900000D03*
%TD*%
D15*
%TO.P,D47,1,K*%
%TO.N,row4*%
X167091250Y-114620000D03*
D16*
%TO.P,D47,2,A*%
%TO.N,Net-(D47-A)*%
X167091250Y-107000000D03*
%TD*%
D15*
%TO.P,D33,1,K*%
%TO.N,row3*%
X162328750Y-95570000D03*
D16*
%TO.P,D33,2,A*%
%TO.N,Net-(D33-A)*%
X162328750Y-87950000D03*
%TD*%
D15*
%TO.P,D18,1,K*%
%TO.N,row2*%
X133753750Y-76520000D03*
D16*
%TO.P,D18,2,A*%
%TO.N,Net-(D18-A)*%
X133753750Y-68900000D03*
%TD*%
D15*
%TO.P,D59,1,K*%
%TO.N,row5*%
X157566250Y-133670000D03*
D16*
%TO.P,D59,2,A*%
%TO.N,Net-(D59-A)*%
X157566250Y-126050000D03*
%TD*%
D15*
%TO.P,D55,1,K*%
%TO.N,row5*%
X81366250Y-133670000D03*
D16*
%TO.P,D55,2,A*%
%TO.N,Net-(D55-A)*%
X81366250Y-126050000D03*
%TD*%
D15*
%TO.P,D50,1,K*%
%TO.N,row5*%
X224241250Y-114620000D03*
D16*
%TO.P,D50,2,A*%
%TO.N,Net-(D50-A)*%
X224241250Y-107000000D03*
%TD*%
D15*
%TO.P,D49,1,K*%
%TO.N,row5*%
X205191250Y-114620000D03*
D16*
%TO.P,D49,2,A*%
%TO.N,Net-(D49-A)*%
X205191250Y-107000000D03*
%TD*%
D15*
%TO.P,D68,1,K*%
%TO.N,row6*%
X86128750Y-152720000D03*
D16*
%TO.P,D68,2,A*%
%TO.N,Net-(D68-A)*%
X86128750Y-145100000D03*
%TD*%
D15*
%TO.P,D7,1,K*%
%TO.N,row1*%
X200428750Y-47945000D03*
D16*
%TO.P,D7,2,A*%
%TO.N,Net-(D7-A)*%
X200428750Y-40325000D03*
%TD*%
D15*
%TO.P,D3,1,K*%
%TO.N,row1*%
X114703750Y-47945000D03*
D16*
%TO.P,D3,2,A*%
%TO.N,Net-(D3-A)*%
X114703750Y-40325000D03*
%TD*%
D15*
%TO.P,D71,1,K*%
%TO.N,row6*%
X252816250Y-152720000D03*
D16*
%TO.P,D71,2,A*%
%TO.N,Net-(D71-A)*%
X252816250Y-145100000D03*
%TD*%
D15*
%TO.P,D57,1,K*%
%TO.N,row5*%
X119466250Y-133670000D03*
D16*
%TO.P,D57,2,A*%
%TO.N,Net-(D57-A)*%
X119466250Y-126050000D03*
%TD*%
D15*
%TO.P,D75,1,K*%
%TO.N,row7*%
X352828750Y-76520000D03*
D16*
%TO.P,D75,2,A*%
%TO.N,Net-(D75-A)*%
X352828750Y-68900000D03*
%TD*%
D15*
%TO.P,D54,1,K*%
%TO.N,row5*%
X324253750Y-114620000D03*
D16*
%TO.P,D54,2,A*%
%TO.N,Net-(D54-A)*%
X324253750Y-107000000D03*
%TD*%
D15*
%TO.P,D9,1,K*%
%TO.N,row1*%
X238528750Y-47945000D03*
D16*
%TO.P,D9,2,A*%
%TO.N,Net-(D9-A)*%
X238528750Y-40325000D03*
%TD*%
D15*
%TO.P,D25,1,K*%
%TO.N,row3*%
X267103750Y-76520000D03*
D16*
%TO.P,D25,2,A*%
%TO.N,Net-(D25-A)*%
X267103750Y-68900000D03*
%TD*%
D15*
%TO.P,D11,1,K*%
%TO.N,row1*%
X286153750Y-47945000D03*
D16*
%TO.P,D11,2,A*%
%TO.N,Net-(D11-A)*%
X286153750Y-40325000D03*
%TD*%
D15*
%TO.P,D16,1,K*%
%TO.N,row2*%
X95653750Y-76520000D03*
D16*
%TO.P,D16,2,A*%
%TO.N,Net-(D16-A)*%
X95653750Y-68900000D03*
%TD*%
D15*
%TO.P,D46,1,K*%
%TO.N,row4*%
X148041250Y-114620000D03*
D16*
%TO.P,D46,2,A*%
%TO.N,Net-(D46-A)*%
X148041250Y-107000000D03*
%TD*%
D15*
%TO.P,D37,1,K*%
%TO.N,row4*%
X238528750Y-95570000D03*
D16*
%TO.P,D37,2,A*%
%TO.N,Net-(D37-A)*%
X238528750Y-87950000D03*
%TD*%
D15*
%TO.P,D65,1,K*%
%TO.N,row6*%
X271866250Y-133670000D03*
D16*
%TO.P,D65,2,A*%
%TO.N,Net-(D65-A)*%
X271866250Y-126050000D03*
%TD*%
D15*
%TO.P,D43,1,K*%
%TO.N,row4*%
X90891250Y-114620000D03*
D16*
%TO.P,D43,2,A*%
%TO.N,Net-(D43-A)*%
X90891250Y-107000000D03*
%TD*%
D15*
%TO.P,D66,1,K*%
%TO.N,row6*%
X324253750Y-133670000D03*
D16*
%TO.P,D66,2,A*%
%TO.N,Net-(D66-A)*%
X324253750Y-126050000D03*
%TD*%
D15*
%TO.P,D29,1,K*%
%TO.N,row3*%
X86128750Y-95570000D03*
D16*
%TO.P,D29,2,A*%
%TO.N,Net-(D29-A)*%
X86128750Y-87950000D03*
%TD*%
D15*
%TO.P,D14,1,K*%
%TO.N,row2*%
X57553750Y-76520000D03*
D16*
%TO.P,D14,2,A*%
%TO.N,Net-(D14-A)*%
X57553750Y-68900000D03*
%TD*%
D15*
%TO.P,D70,1,K*%
%TO.N,row6*%
X229003750Y-152720000D03*
D16*
%TO.P,D70,2,A*%
%TO.N,Net-(D70-A)*%
X229003750Y-145100000D03*
%TD*%
D15*
%TO.P,D31,1,K*%
%TO.N,row3*%
X124228750Y-95570000D03*
D16*
%TO.P,D31,2,A*%
%TO.N,Net-(D31-A)*%
X124228750Y-87950000D03*
%TD*%
D15*
%TO.P,D56,1,K*%
%TO.N,row5*%
X100416250Y-133670000D03*
D16*
%TO.P,D56,2,A*%
%TO.N,Net-(D56-A)*%
X100416250Y-126050000D03*
%TD*%
D15*
%TO.P,D82,1,K*%
%TO.N,row7*%
X375175000Y-48310000D03*
D16*
%TO.P,D82,2,A*%
%TO.N,Net-(D82-A)*%
X375175000Y-40690000D03*
%TD*%
D15*
%TO.P,D69,1,K*%
%TO.N,row6*%
X109941250Y-152720000D03*
D16*
%TO.P,D69,2,A*%
%TO.N,Net-(D69-A)*%
X109941250Y-145100000D03*
%TD*%
D15*
%TO.P,D72,1,K*%
%TO.N,row6*%
X276628750Y-152720000D03*
D16*
%TO.P,D72,2,A*%
%TO.N,Net-(D72-A)*%
X276628750Y-145100000D03*
%TD*%
D15*
%TO.P,D45,1,K*%
%TO.N,row4*%
X128991250Y-114620000D03*
D16*
%TO.P,D45,2,A*%
%TO.N,Net-(D45-A)*%
X128991250Y-107000000D03*
%TD*%
D15*
%TO.P,D48,1,K*%
%TO.N,row4*%
X186141250Y-114620000D03*
D16*
%TO.P,D48,2,A*%
%TO.N,Net-(D48-A)*%
X186141250Y-107000000D03*
%TD*%
D15*
%TO.P,D36,1,K*%
%TO.N,row3*%
X219478750Y-95570000D03*
D16*
%TO.P,D36,2,A*%
%TO.N,Net-(D36-A)*%
X219478750Y-87950000D03*
%TD*%
D15*
%TO.P,D4,1,K*%
%TO.N,row1*%
X133753750Y-47945000D03*
D16*
%TO.P,D4,2,A*%
%TO.N,Net-(D4-A)*%
X133753750Y-40325000D03*
%TD*%
D15*
%TO.P,D28,1,K*%
%TO.N,row3*%
X67078750Y-95570000D03*
D16*
%TO.P,D28,2,A*%
%TO.N,Net-(D28-A)*%
X67078750Y-87950000D03*
%TD*%
D15*
%TO.P,D30,1,K*%
%TO.N,row3*%
X105178750Y-95570000D03*
D16*
%TO.P,D30,2,A*%
%TO.N,Net-(D30-A)*%
X105178750Y-87950000D03*
%TD*%
D15*
%TO.P,D13,1,K*%
%TO.N,row2*%
X324253750Y-47945000D03*
D16*
%TO.P,D13,2,A*%
%TO.N,Net-(D13-A)*%
X324253750Y-40325000D03*
%TD*%
D15*
%TO.P,D24,1,K*%
%TO.N,row2*%
X248053750Y-76520000D03*
D16*
%TO.P,D24,2,A*%
%TO.N,Net-(D24-A)*%
X248053750Y-68900000D03*
%TD*%
D17*
%TO.P,U1,1,GPIO0*%
%TO.N,row1*%
X401406250Y-110968750D03*
D18*
X401406250Y-111868750D03*
D17*
%TO.P,U1,2,GPIO1*%
%TO.N,row2*%
X398866250Y-110968750D03*
D18*
X398866250Y-111868750D03*
D19*
%TO.P,U1,3,GND*%
%TO.N,unconnected-(U1-GND-Pad3)*%
X396326250Y-110968750D03*
D18*
X396326250Y-111868750D03*
D17*
%TO.P,U1,4,GPIO2*%
%TO.N,row4*%
X393786250Y-110968750D03*
D18*
X393786250Y-111868750D03*
D17*
%TO.P,U1,5,GPIO3*%
%TO.N,row5*%
X391246250Y-110968750D03*
D18*
X391246250Y-111868750D03*
D17*
%TO.P,U1,6,GPIO4*%
%TO.N,row6*%
X388706250Y-110968750D03*
D18*
X388706250Y-111868750D03*
D17*
%TO.P,U1,7,GPIO5*%
%TO.N,row7*%
X386166250Y-110968750D03*
D18*
X386166250Y-111868750D03*
D19*
%TO.P,U1,8,GND*%
%TO.N,unconnected-(U1-GND-Pad8)*%
X383626250Y-110968750D03*
D18*
X383626250Y-111868750D03*
D17*
%TO.P,U1,9,GPIO6*%
%TO.N,col1*%
X381086250Y-110968750D03*
D18*
X381086250Y-111868750D03*
D17*
%TO.P,U1,10,GPIO7*%
%TO.N,col2*%
X378546250Y-110968750D03*
D18*
X378546250Y-111868750D03*
D17*
%TO.P,U1,11,GPIO8*%
%TO.N,col3*%
X376006250Y-110968750D03*
D18*
X376006250Y-111868750D03*
D17*
%TO.P,U1,12,GPIO9*%
%TO.N,col4*%
X373466250Y-110968750D03*
D18*
X373466250Y-111868750D03*
D19*
%TO.P,U1,13,GND*%
%TO.N,unconnected-(U1-GND-Pad13)*%
X370926250Y-110968750D03*
D18*
X370926250Y-111868750D03*
D17*
%TO.P,U1,14,GPIO10*%
%TO.N,col6*%
X368386250Y-110968750D03*
D18*
X368386250Y-111868750D03*
D17*
%TO.P,U1,15,GPIO11*%
%TO.N,col7*%
X365846250Y-110968750D03*
D18*
X365846250Y-111868750D03*
D17*
%TO.P,U1,16,GPIO12*%
%TO.N,col8*%
X363306250Y-110968750D03*
D18*
X363306250Y-111868750D03*
D17*
%TO.P,U1,17,GPIO13*%
%TO.N,col9*%
X360766250Y-110968750D03*
D18*
X360766250Y-111868750D03*
D19*
%TO.P,U1,18,GND*%
%TO.N,unconnected-(U1-GND-Pad18)*%
X358226250Y-110968750D03*
D18*
X358226250Y-111868750D03*
D17*
%TO.P,U1,19,GPIO14*%
%TO.N,col11*%
X355686250Y-110968750D03*
D18*
X355686250Y-111868750D03*
D17*
%TO.P,U1,20,GPIO15*%
%TO.N,col12*%
X353146250Y-110968750D03*
D18*
X353146250Y-111868750D03*
D17*
%TO.P,U1,21,GPIO16*%
%TO.N,enc2_1*%
X353146250Y-93188750D03*
D18*
X353146250Y-92288750D03*
D17*
%TO.P,U1,22,GPIO17*%
%TO.N,enc1_1*%
X355686250Y-93188750D03*
D18*
X355686250Y-92288750D03*
D19*
%TO.P,U1,23,GND*%
%TO.N,unconnected-(U1-GND-Pad23)*%
X358226250Y-93188750D03*
D18*
X358226250Y-92288750D03*
D17*
%TO.P,U1,24,GPIO18*%
%TO.N,enc2_3*%
X360766250Y-93188750D03*
D18*
X360766250Y-92288750D03*
D17*
%TO.P,U1,25,GPIO19*%
%TO.N,enc1_3*%
X363306250Y-93188750D03*
D18*
X363306250Y-92288750D03*
D17*
%TO.P,U1,26,GPIO20*%
%TO.N,enc2_2*%
X365846250Y-93188750D03*
D18*
X365846250Y-92288750D03*
D17*
%TO.P,U1,27,GPIO21*%
%TO.N,enc1_2*%
X368386250Y-93188750D03*
D18*
X368386250Y-92288750D03*
D19*
%TO.P,U1,28,GND*%
%TO.N,unconnected-(U1-GND-Pad28)*%
X370926250Y-93188750D03*
D18*
X370926250Y-92288750D03*
D17*
%TO.P,U1,29,GPIO22*%
%TO.N,rgb*%
X373466250Y-93188750D03*
D18*
X373466250Y-92288750D03*
D17*
%TO.P,U1,30,RUN*%
%TO.N,unconnected-(U1-RUN-Pad30)*%
X376006250Y-93188750D03*
D18*
X376006250Y-92288750D03*
D17*
%TO.P,U1,31,GPIO26_ADC0*%
%TO.N,col10*%
X378546250Y-93188750D03*
D18*
X378546250Y-92288750D03*
D17*
%TO.P,U1,32,GPIO27_ADC1*%
%TO.N,row3*%
X381086250Y-93188750D03*
D18*
X381086250Y-92288750D03*
D19*
%TO.P,U1,33,AGND*%
%TO.N,unconnected-(U1-AGND-Pad33)*%
X383626250Y-93188750D03*
D18*
X383626250Y-92288750D03*
D17*
%TO.P,U1,34,GPIO28_ADC2*%
%TO.N,col5*%
X386166250Y-93188750D03*
D18*
X386166250Y-92288750D03*
D17*
%TO.P,U1,35,ADC_VREF*%
%TO.N,unconnected-(U1-ADC_VREF-Pad35)*%
X388706250Y-93188750D03*
D18*
X388706250Y-92288750D03*
D17*
%TO.P,U1,36,3V3*%
%TO.N,unconnected-(U1-3V3-Pad36)*%
X391246250Y-93188750D03*
D18*
X391246250Y-92288750D03*
D17*
%TO.P,U1,37,3V3_EN*%
%TO.N,unconnected-(U1-3V3_EN-Pad37)*%
X393786250Y-93188750D03*
D18*
X393786250Y-92288750D03*
D19*
%TO.P,U1,38,GND*%
%TO.N,GND*%
X396326250Y-93188750D03*
D18*
X396326250Y-92288750D03*
D17*
%TO.P,U1,39,VSYS*%
%TO.N,unconnected-(U1-VSYS-Pad39)*%
X398866250Y-93188750D03*
D18*
X398866250Y-92288750D03*
D17*
%TO.P,U1,40,VBUS*%
%TO.N,+5V*%
X401406250Y-93188750D03*
D18*
X401406250Y-92288750D03*
D17*
%TO.P,U1,41,SWCLK*%
%TO.N,unconnected-(U1-SWCLK-Pad41)*%
X353376250Y-104618750D03*
D20*
X352476250Y-104618750D03*
D19*
%TO.P,U1,42,GND*%
%TO.N,unconnected-(U1-GND-Pad42)*%
X353376250Y-102078750D03*
D20*
X352476250Y-102078750D03*
D17*
%TO.P,U1,43,SWDIO*%
%TO.N,unconnected-(U1-SWDIO-Pad43)*%
X353376250Y-99538750D03*
D20*
X352476250Y-99538750D03*
%TD*%
D15*
%TO.P,D34,1,K*%
%TO.N,row3*%
X181378750Y-95570000D03*
D16*
%TO.P,D34,2,A*%
%TO.N,Net-(D34-A)*%
X181378750Y-87950000D03*
%TD*%
D15*
%TO.P,D79,1,K*%
%TO.N,row7*%
X352828750Y-152720000D03*
D16*
%TO.P,D79,2,A*%
%TO.N,Net-(D79-A)*%
X352828750Y-145100000D03*
%TD*%
D15*
%TO.P,D80,1,K*%
%TO.N,row7*%
X371878750Y-152720000D03*
D16*
%TO.P,D80,2,A*%
%TO.N,Net-(D80-A)*%
X371878750Y-145100000D03*
%TD*%
D21*
%TO.N,row2*%
X367116250Y-57470000D03*
X392705000Y-107720000D03*
X352828750Y-64613750D03*
X386775000Y-101660000D03*
X401005000Y-73720000D03*
%TO.N,row3*%
X336160000Y-84263750D03*
X326635000Y-79501250D03*
%TO.N,row4*%
X392855000Y-100000000D03*
X398085000Y-94990000D03*
%TO.N,GND*%
X292845000Y-58320000D03*
X394675000Y-82530000D03*
X306615000Y-53620000D03*
X336945000Y-111490000D03*
X325195000Y-62270000D03*
X322705000Y-51710000D03*
X369504515Y-117880485D03*
X310175000Y-53200000D03*
X102845000Y-56400000D03*
X196185000Y-60870000D03*
X105556250Y-59101250D03*
X296515000Y-59650000D03*
X394815000Y-71600000D03*
X326045000Y-64820000D03*
X331705000Y-106850000D03*
X395091250Y-146510000D03*
X361615000Y-116350000D03*
X360075000Y-107400000D03*
X366145000Y-119090000D03*
X192675000Y-62790000D03*
%TO.N,Net-(D85-DOUT)*%
X59935000Y-62232500D03*
X361685000Y-103220000D03*
X356098500Y-100689750D03*
X219478750Y-100332500D03*
X59935000Y-66995000D03*
X212335000Y-100332500D03*
%TO.N,+5V*%
X395995000Y-101490000D03*
X206545000Y-58780000D03*
X121775000Y-58980000D03*
X206985000Y-56880000D03*
X126165000Y-54610000D03*
X396904265Y-97789265D03*
%TO.N,rgb*%
X373466250Y-102585000D03*
X373485000Y-95620000D03*
%TO.N,Net-(D89-DOUT)*%
X158185000Y-162120000D03*
X163145000Y-165800000D03*
X288535000Y-64613750D03*
X290916250Y-57470000D03*
%TO.N,col1*%
X383785000Y-124145000D03*
X293297500Y-136051250D03*
X374260000Y-138432500D03*
%TO.N,col3*%
X350447500Y-74138750D03*
X367398970Y-115870000D03*
X340922500Y-83063750D03*
X302822500Y-59851250D03*
X359972500Y-119382500D03*
%TO.N,col4*%
X362885000Y-122020000D03*
X367785000Y-66120000D03*
X346585000Y-114320000D03*
X365913860Y-123791140D03*
X347781140Y-82416140D03*
%TO.N,col9*%
X302822500Y-147957500D03*
X176795000Y-151370000D03*
X362353750Y-136051250D03*
X324253750Y-136051250D03*
%TO.N,col5*%
X366885000Y-85920000D03*
X338985000Y-89420000D03*
X384884999Y-80120000D03*
X370385000Y-80420000D03*
%TO.N,col6*%
X300315000Y-140460000D03*
%TO.N,col7*%
X331397500Y-140813750D03*
%TO.N,col8*%
X176616250Y-152720000D03*
X286153750Y-157482500D03*
X376641250Y-164626250D03*
%TO.N,col11*%
X348066250Y-81282500D03*
%TO.N,col12*%
X352828750Y-55088750D03*
X309541985Y-54664485D03*
%TO.N,row1*%
X390805000Y-97710000D03*
X392015000Y-83040000D03*
X357591250Y-62232500D03*
X329016250Y-62232500D03*
%TD*%
D22*
%TO.N,row2*%
X392705000Y-107720000D02*
X395617500Y-107720000D01*
X399425000Y-75300000D02*
X389946750Y-75300000D01*
X389946750Y-75300000D02*
X389785000Y-75461750D01*
X389785000Y-75461750D02*
X389785000Y-90165500D01*
X401005000Y-73720000D02*
X399425000Y-75300000D01*
X352828750Y-64613750D02*
X359972500Y-64613750D01*
X389857250Y-90237750D02*
X389857250Y-97157750D01*
X389857250Y-97157750D02*
X386775000Y-100240000D01*
X386775000Y-100240000D02*
X386775000Y-101660000D01*
X389785000Y-90165500D02*
X389857250Y-90237750D01*
X395617500Y-107720000D02*
X398866250Y-110968750D01*
X359972500Y-64613750D02*
X367116250Y-57470000D01*
%TO.N,row3*%
X219478750Y-95570000D02*
X233766250Y-95570000D01*
X233766250Y-95570000D02*
X252816250Y-76520000D01*
X331397500Y-84263750D02*
X326635000Y-79501250D01*
X336160000Y-84263750D02*
X331397500Y-84263750D01*
X252816250Y-76520000D02*
X267103750Y-76520000D01*
%TO.N,Net-(D27-A)*%
X319143750Y-63790000D02*
X324253750Y-68900000D01*
X310105000Y-63790000D02*
X319143750Y-63790000D01*
%TO.N,row4*%
X398085000Y-94990000D02*
X393075000Y-100000000D01*
X393075000Y-100000000D02*
X392855000Y-100000000D01*
%TO.N,row6*%
X229003750Y-152720000D02*
X231385000Y-152720000D01*
X349904934Y-160264750D02*
X393476100Y-160264750D01*
X292498750Y-136850000D02*
X321073750Y-136850000D01*
X393476100Y-160264750D02*
X398072500Y-155668350D01*
X324253750Y-133670000D02*
X324253750Y-134613566D01*
X233766250Y-150338750D02*
X233766250Y-133670000D01*
X252816250Y-136051250D02*
X252816250Y-133670000D01*
X252816250Y-152720000D02*
X255197500Y-152720000D01*
X398072500Y-121897000D02*
X388706250Y-112530750D01*
X231385000Y-152720000D02*
X233766250Y-150338750D01*
X388706250Y-112530750D02*
X388706250Y-110968750D01*
X321073750Y-136850000D02*
X324253750Y-133670000D01*
X271866250Y-133670000D02*
X271866250Y-147957500D01*
X276628750Y-152720000D02*
X292498750Y-136850000D01*
X324253750Y-134613566D02*
X349904934Y-160264750D01*
X256085000Y-139320000D02*
X252816250Y-136051250D01*
X255197500Y-152720000D02*
X256085000Y-151832500D01*
X256085000Y-151832500D02*
X256085000Y-139320000D01*
X398072500Y-155668350D02*
X398072500Y-121897000D01*
X271866250Y-147957500D02*
X276628750Y-152720000D01*
%TO.N,Net-(D66-A)*%
X294065000Y-128580000D02*
X321723750Y-128580000D01*
X321723750Y-128580000D02*
X324253750Y-126050000D01*
%TO.N,Net-(D67-A)*%
X46345000Y-147710000D02*
X59706250Y-147710000D01*
X59706250Y-147710000D02*
X62316250Y-145100000D01*
%TO.N,row7*%
X386166250Y-107678750D02*
X386166250Y-110968750D01*
X397005000Y-96840000D02*
X386166250Y-107678750D01*
X402575000Y-96285819D02*
X402020819Y-96840000D01*
X402575000Y-88166250D02*
X402575000Y-96285819D01*
X390928750Y-76520000D02*
X402575000Y-88166250D01*
X402020819Y-96840000D02*
X397005000Y-96840000D01*
%TO.N,GND*%
X330825000Y-108690000D02*
X330715000Y-108580000D01*
X334502750Y-44126000D02*
X335803750Y-42825000D01*
X330715000Y-107770000D02*
X331635000Y-106850000D01*
X364355000Y-119090000D02*
X361615000Y-116350000D01*
X366145000Y-119090000D02*
X364355000Y-119090000D01*
X327005000Y-53940000D02*
X327005000Y-57920000D01*
X309755000Y-53620000D02*
X310175000Y-53200000D01*
X326045000Y-64820000D02*
X326045000Y-64353807D01*
X385875000Y-42825000D02*
X378666250Y-42825000D01*
X333625000Y-111490000D02*
X330825000Y-108690000D01*
X360075000Y-105770000D02*
X360075000Y-107400000D01*
X335803750Y-42825000D02*
X366828008Y-42825000D01*
X194595000Y-60870000D02*
X196185000Y-60870000D01*
X386185000Y-134940000D02*
X386185000Y-134560970D01*
X103485000Y-57030000D02*
X105556250Y-59101250D01*
X326045000Y-64353807D02*
X334502750Y-55896057D01*
X324775000Y-51710000D02*
X326265000Y-53200000D01*
X103475000Y-57030000D02*
X103485000Y-57030000D01*
X361225000Y-104620000D02*
X360135000Y-105710000D01*
X392506142Y-42825000D02*
X385875000Y-42825000D01*
X327005000Y-57920000D02*
X325195000Y-59730000D01*
X394815000Y-71600000D02*
X394815000Y-48813642D01*
X396326250Y-93188750D02*
X396326250Y-84181250D01*
X366828008Y-42825000D02*
X374129008Y-35524000D01*
X334502750Y-55896057D02*
X334502750Y-44126000D01*
X394815000Y-48813642D02*
X388826358Y-42825000D01*
X390205142Y-35524000D02*
X394467250Y-39786108D01*
X331635000Y-106850000D02*
X331705000Y-106850000D01*
X394467250Y-39786108D02*
X394467250Y-40863892D01*
X368995000Y-104620000D02*
X361225000Y-104620000D01*
X395091250Y-146510000D02*
X395091250Y-143846250D01*
X306615000Y-53620000D02*
X309755000Y-53620000D01*
X388826358Y-42825000D02*
X385875000Y-42825000D01*
X292845000Y-58320000D02*
X294175000Y-59650000D01*
X396326250Y-84181250D02*
X394675000Y-82530000D01*
X102845000Y-56400000D02*
X103475000Y-57030000D01*
X374129008Y-35524000D02*
X390205142Y-35524000D01*
X294175000Y-59650000D02*
X296515000Y-59650000D01*
X330715000Y-108580000D02*
X330715000Y-107770000D01*
X384895000Y-104620000D02*
X368995000Y-104620000D01*
X192675000Y-62790000D02*
X194595000Y-60870000D01*
X394467250Y-40863892D02*
X392506142Y-42825000D01*
X395091250Y-143846250D02*
X386185000Y-134940000D01*
X326265000Y-53200000D02*
X327005000Y-53940000D01*
X336945000Y-111490000D02*
X333625000Y-111490000D01*
X386185000Y-134560970D02*
X369504515Y-117880485D01*
X325195000Y-59730000D02*
X325195000Y-62270000D01*
X322705000Y-51710000D02*
X324775000Y-51710000D01*
X396326250Y-93188750D02*
X384895000Y-104620000D01*
X360135000Y-105710000D02*
X360075000Y-105770000D01*
%TO.N,Net-(D85-DOUT)*%
X59935000Y-66995000D02*
X59935000Y-62232500D01*
X359154750Y-100689750D02*
X356098500Y-100689750D01*
X361685000Y-103220000D02*
X359154750Y-100689750D01*
X219478750Y-100332500D02*
X212335000Y-100332500D01*
%TO.N,+5V*%
X126145000Y-54610000D02*
X126165000Y-54610000D01*
X395995000Y-101490000D02*
X396904265Y-100580735D01*
X206545000Y-58780000D02*
X206985000Y-58340000D01*
X206985000Y-58340000D02*
X206985000Y-56880000D01*
X121775000Y-58980000D02*
X126145000Y-54610000D01*
X396904265Y-100580735D02*
X396904265Y-97789265D01*
%TO.N,rgb*%
X373485000Y-95620000D02*
X373485000Y-102566250D01*
X373485000Y-102566250D02*
X373466250Y-102585000D01*
%TO.N,Net-(D89-DOUT)*%
X161665000Y-164320000D02*
X160385000Y-164320000D01*
X163145000Y-165800000D02*
X161665000Y-164320000D01*
X290916250Y-62232500D02*
X288535000Y-64613750D01*
X160385000Y-164320000D02*
X158185000Y-162120000D01*
X290916250Y-57470000D02*
X290916250Y-62232500D01*
%TO.N,col1*%
X277729750Y-153821000D02*
X275527750Y-153821000D01*
X231644350Y-128779000D02*
X222713250Y-128779000D01*
X383785000Y-124145000D02*
X381086250Y-121446250D01*
X269485000Y-147778250D02*
X269485000Y-145264054D01*
X220859720Y-130632530D02*
X220203500Y-130632530D01*
X244106316Y-133481000D02*
X236346350Y-133481000D01*
X287248693Y-66750000D02*
X289488693Y-64510000D01*
X52315000Y-38420000D02*
X315205000Y-38420000D01*
X300545000Y-64510000D02*
X317110000Y-47945000D01*
X219499970Y-129929000D02*
X209558316Y-129929000D01*
X319670500Y-136051250D02*
X323152750Y-132569000D01*
X289488693Y-64510000D02*
X300545000Y-64510000D01*
X231295000Y-87955000D02*
X222679200Y-87955000D01*
X381086250Y-121446250D02*
X381086250Y-110968750D01*
X275527750Y-153821000D02*
X269485000Y-147778250D01*
X209558316Y-129929000D02*
X206006316Y-133481000D01*
X206006316Y-133481000D02*
X197679250Y-133481000D01*
X259960000Y-68900000D02*
X250350000Y-68900000D01*
X222679200Y-87955000D02*
X203634200Y-107000000D01*
X197679250Y-133481000D02*
X190248250Y-126050000D01*
X269485000Y-145264054D02*
X256551946Y-132331000D01*
X190248250Y-126050000D02*
X188522500Y-126050000D01*
X50410000Y-40325000D02*
X52315000Y-38420000D01*
X262110000Y-66750000D02*
X287248693Y-66750000D01*
X198047500Y-116525000D02*
X188522500Y-126050000D01*
X236346350Y-133481000D02*
X231644350Y-128779000D01*
X245256316Y-132331000D02*
X244106316Y-133481000D01*
X315205000Y-38420000D02*
X317110000Y-40325000D01*
X323152750Y-132569000D02*
X358021557Y-132569000D01*
X283950750Y-147600000D02*
X277729750Y-153821000D01*
X317110000Y-47945000D02*
X317110000Y-40325000D01*
X256551946Y-132331000D02*
X245256316Y-132331000D01*
X259960000Y-68900000D02*
X262110000Y-66750000D01*
X250350000Y-68900000D02*
X231295000Y-87955000D01*
X222713250Y-128779000D02*
X220859720Y-130632530D01*
X284537500Y-147600000D02*
X283950750Y-147600000D01*
X363885057Y-138432500D02*
X374260000Y-138432500D01*
X198047500Y-107000000D02*
X198047500Y-116525000D01*
X220203500Y-130632530D02*
X219499970Y-129929000D01*
X293297500Y-136051250D02*
X319670500Y-136051250D01*
X203634200Y-107000000D02*
X198047500Y-107000000D01*
X358021557Y-132569000D02*
X363885057Y-138432500D01*
%TO.N,col2*%
X250355000Y-87955000D02*
X254646250Y-83663750D01*
X269485000Y-83663750D02*
X274061000Y-79087750D01*
X318805000Y-59810000D02*
X323115000Y-64120000D01*
X277105000Y-68900000D02*
X279010000Y-68900000D01*
X217097500Y-116525000D02*
X217097500Y-107000000D01*
X329016250Y-40801250D02*
X324253750Y-36038750D01*
X279010000Y-68900000D02*
X280111000Y-70001000D01*
X38503750Y-45563750D02*
X38503750Y-62232500D01*
X237192684Y-100332500D02*
X249570184Y-87955000D01*
X48028750Y-36038750D02*
X38503750Y-45563750D01*
X323115000Y-64120000D02*
X324747500Y-64120000D01*
X223765000Y-100332500D02*
X237192684Y-100332500D01*
X207572500Y-126050000D02*
X217097500Y-116525000D01*
X274061000Y-71944000D02*
X277105000Y-68900000D01*
X280111000Y-70001000D02*
X295621100Y-70001000D01*
X274061000Y-79087750D02*
X274061000Y-71944000D01*
X329016250Y-59851250D02*
X329016250Y-40801250D01*
X45141250Y-68870000D02*
X50387500Y-68870000D01*
X324253750Y-36038750D02*
X48028750Y-36038750D01*
X50387500Y-68870000D02*
X78932500Y-40325000D01*
X38503750Y-62232500D02*
X45141250Y-68870000D01*
X254646250Y-83663750D02*
X269485000Y-83663750D01*
X249570184Y-87955000D02*
X250355000Y-87955000D01*
X305812100Y-59810000D02*
X318805000Y-59810000D01*
X324747500Y-64120000D02*
X329016250Y-59851250D01*
X78932500Y-40325000D02*
X88510000Y-40325000D01*
X217097500Y-107000000D02*
X223765000Y-100332500D01*
X295621100Y-70001000D02*
X305812100Y-59810000D01*
%TO.N,col3*%
X340922500Y-112805850D02*
X347499150Y-119382500D01*
X252816250Y-38821000D02*
X300842250Y-38821000D01*
X296866314Y-71440000D02*
X301976314Y-66330000D01*
X127190314Y-38924000D02*
X127293314Y-38821000D01*
X269445000Y-87945000D02*
X285950000Y-71440000D01*
X340922500Y-83063750D02*
X340922500Y-112805850D01*
X347499150Y-119382500D02*
X359972500Y-119382500D01*
X268660184Y-87945000D02*
X269445000Y-87945000D01*
X127293314Y-38821000D02*
X252816250Y-38821000D01*
X250706184Y-105899000D02*
X268660184Y-87945000D01*
X98035000Y-40325000D02*
X107560000Y-40325000D01*
X374555000Y-115870000D02*
X376006250Y-114418750D01*
X69460000Y-68900000D02*
X99436000Y-38924000D01*
X236147500Y-107000000D02*
X237248500Y-105899000D01*
X237248500Y-105899000D02*
X250706184Y-105899000D01*
X300842250Y-38821000D02*
X302822500Y-40801250D01*
X226622500Y-126050000D02*
X236147500Y-116525000D01*
X367398970Y-115870000D02*
X374555000Y-115870000D01*
X99436000Y-38924000D02*
X127190314Y-38924000D01*
X69460000Y-68900000D02*
X98035000Y-40325000D01*
X302822500Y-40801250D02*
X302822500Y-59851250D01*
X376006250Y-114418750D02*
X376006250Y-110968750D01*
X301976314Y-66330000D02*
X303755000Y-66330000D01*
X236147500Y-116525000D02*
X236147500Y-107000000D01*
X285950000Y-71440000D02*
X296866314Y-71440000D01*
X350447500Y-73662500D02*
X350447500Y-74138750D01*
X345685000Y-68900000D02*
X350447500Y-73662500D01*
%TO.N,col4*%
X245672500Y-126050000D02*
X255197500Y-116525000D01*
X302083750Y-78901250D02*
X348245500Y-78901250D01*
X358246750Y-68900000D02*
X364735000Y-68900000D01*
X87725184Y-68900000D02*
X88510000Y-68900000D01*
X347781140Y-82416140D02*
X346585000Y-83612280D01*
X48655000Y-90515000D02*
X55506250Y-83663750D01*
X255197500Y-116525000D02*
X255197500Y-107000000D01*
X288515000Y-87945000D02*
X293040000Y-87945000D01*
X88510000Y-68900000D02*
X117085000Y-40325000D01*
X348245500Y-78901250D02*
X358246750Y-68900000D01*
X365005000Y-68900000D02*
X367785000Y-66120000D01*
X263918500Y-105899000D02*
X281872500Y-87945000D01*
X78985000Y-81282500D02*
X78985000Y-77640184D01*
X78985000Y-77640184D02*
X87725184Y-68900000D01*
X364656140Y-123791140D02*
X365913860Y-123791140D01*
X281872500Y-87945000D02*
X288515000Y-87945000D01*
X256298500Y-105899000D02*
X263918500Y-105899000D01*
X255197500Y-107000000D02*
X256298500Y-105899000D01*
X364735000Y-68900000D02*
X365005000Y-68900000D01*
X362885000Y-122020000D02*
X364656140Y-123791140D01*
X76603750Y-83663750D02*
X78985000Y-81282500D01*
X55506250Y-83663750D02*
X76603750Y-83663750D01*
X346585000Y-83612280D02*
X346585000Y-114320000D01*
X117085000Y-40325000D02*
X126610000Y-40325000D01*
X293040000Y-87945000D02*
X302083750Y-78901250D01*
%TO.N,col9*%
X112322500Y-138432500D02*
X112322500Y-126050000D01*
X100773750Y-140813750D02*
X109941250Y-140813750D01*
X203614000Y-49046000D02*
X216175750Y-49046000D01*
X374736250Y-136051250D02*
X383785000Y-145100000D01*
X154240184Y-87975000D02*
X155025000Y-87975000D01*
X93907500Y-149734816D02*
X93907500Y-147680000D01*
X155025000Y-87975000D02*
X161717500Y-81282500D01*
X383785000Y-145100000D02*
X383785000Y-140813750D01*
X183760000Y-68900000D02*
X203614000Y-49046000D01*
X143278750Y-100332500D02*
X145660000Y-97951250D01*
X302822500Y-147957500D02*
X307585000Y-143195000D01*
X177242316Y-81282500D02*
X183760000Y-74764816D01*
X112322500Y-126050000D02*
X121847500Y-116525000D01*
X172254750Y-154700250D02*
X98872934Y-154700250D01*
X145660000Y-96555184D02*
X154240184Y-87975000D01*
X224896750Y-40325000D02*
X231385000Y-40325000D01*
X183760000Y-74764816D02*
X183760000Y-68900000D01*
X175585000Y-151370000D02*
X172254750Y-154700250D01*
X109941250Y-140813750D02*
X112322500Y-138432500D01*
X176795000Y-151370000D02*
X175585000Y-151370000D01*
X98872934Y-154700250D02*
X93907500Y-149734816D01*
X383785000Y-140813750D02*
X360766250Y-117795000D01*
X93907500Y-147680000D02*
X100773750Y-140813750D01*
X216175750Y-49046000D02*
X224896750Y-40325000D01*
X360766250Y-117795000D02*
X360766250Y-110968750D01*
X145660000Y-97951250D02*
X145660000Y-96555184D01*
X121847500Y-107000000D02*
X128515000Y-100332500D01*
X121847500Y-116525000D02*
X121847500Y-107000000D01*
X128515000Y-100332500D02*
X143278750Y-100332500D01*
X161717500Y-81282500D02*
X177242316Y-81282500D01*
X307585000Y-143195000D02*
X317110000Y-143195000D01*
X317110000Y-143195000D02*
X324253750Y-136051250D01*
X362353750Y-136051250D02*
X374736250Y-136051250D01*
%TO.N,col5*%
X264722500Y-126050000D02*
X274247500Y-116525000D01*
X279185000Y-124920000D02*
X302375000Y-101730000D01*
X295678750Y-100307424D02*
X305531174Y-90455000D01*
X144875184Y-40325000D02*
X145660000Y-40325000D01*
X384884999Y-69999999D02*
X384884999Y-80120000D01*
X327225000Y-101580000D02*
X338985000Y-89820000D01*
X78755000Y-87965000D02*
X83056250Y-83663750D01*
X107560000Y-68900000D02*
X108661000Y-67799000D01*
X295678750Y-100332500D02*
X295678750Y-100307424D01*
X366885000Y-85920000D02*
X370385000Y-82420000D01*
X100416250Y-81282500D02*
X100416250Y-75258934D01*
X280915000Y-100332500D02*
X295678750Y-100332500D01*
X117401184Y-67799000D02*
X144875184Y-40325000D01*
X383785000Y-68900000D02*
X384884999Y-69999999D01*
X305531174Y-90455000D02*
X305995000Y-90455000D01*
X338985000Y-89820000D02*
X338985000Y-89420000D01*
X302375000Y-101730000D02*
X302375000Y-101580000D01*
X83056250Y-83663750D02*
X98035000Y-83663750D01*
X370385000Y-82420000D02*
X370385000Y-80420000D01*
X302375000Y-101580000D02*
X327225000Y-101580000D01*
X274247500Y-107000000D02*
X280915000Y-100332500D01*
X265852500Y-124920000D02*
X279185000Y-124920000D01*
X108661000Y-67799000D02*
X117401184Y-67799000D01*
X100416250Y-75258934D02*
X106775184Y-68900000D01*
X384884999Y-91907499D02*
X386166250Y-93188750D01*
X106775184Y-68900000D02*
X107560000Y-68900000D01*
X384884999Y-80120000D02*
X384884999Y-91907499D01*
X274247500Y-116525000D02*
X274247500Y-107000000D01*
X264722500Y-126050000D02*
X265852500Y-124920000D01*
X98035000Y-83663750D02*
X100416250Y-81282500D01*
%TO.N,col6*%
X42575000Y-139990000D02*
X51045000Y-131520000D01*
X119466250Y-75258934D02*
X125825184Y-68900000D01*
X42575000Y-151230000D02*
X42575000Y-139990000D01*
X60267500Y-100332500D02*
X75705970Y-100332500D01*
X51045000Y-131520000D02*
X51045000Y-109555000D01*
X88073470Y-87965000D02*
X97795000Y-87965000D01*
X300419924Y-141413750D02*
X286331424Y-155502250D01*
X155185000Y-40325000D02*
X174235000Y-40325000D01*
X75705970Y-100332500D02*
X88073470Y-87965000D01*
X286331424Y-155502250D02*
X46847250Y-155502250D01*
X300315000Y-140520152D02*
X300419924Y-140625076D01*
X305175000Y-107000000D02*
X305175000Y-121280000D01*
X97795000Y-87965000D02*
X102096250Y-83663750D01*
X46847250Y-155502250D02*
X42575000Y-151230000D01*
X305175000Y-121280000D02*
X300415000Y-126040000D01*
X102096250Y-83663750D02*
X117085000Y-83663750D01*
X300419924Y-140625076D02*
X300419924Y-141413750D01*
X119466250Y-81282500D02*
X119466250Y-75258934D01*
X51045000Y-109555000D02*
X60267500Y-100332500D01*
X126610000Y-68900000D02*
X155185000Y-40325000D01*
X300315000Y-140460000D02*
X300315000Y-140520152D01*
X125825184Y-68900000D02*
X126610000Y-68900000D01*
X117085000Y-83663750D02*
X119466250Y-81282500D01*
%TO.N,col7*%
X394490250Y-146758943D02*
X394490250Y-146261057D01*
X145655000Y-76525000D02*
X145655000Y-68925000D01*
X345685000Y-145100000D02*
X335683750Y-145100000D01*
X186796750Y-40325000D02*
X193285000Y-40325000D01*
X103702684Y-100332500D02*
X116090184Y-87945000D01*
X121156250Y-83663750D02*
X138516250Y-83663750D01*
X84223750Y-107000000D02*
X90891250Y-100332500D01*
X165534000Y-49046000D02*
X178075750Y-49046000D01*
X345685000Y-155101250D02*
X350447500Y-159863750D01*
X394490250Y-146261057D02*
X394690250Y-146061057D01*
X116090184Y-87945000D02*
X116875000Y-87945000D01*
X394842307Y-147111000D02*
X394490250Y-146758943D01*
X83747500Y-107000000D02*
X84223750Y-107000000D01*
X365846250Y-116001250D02*
X365846250Y-110968750D01*
X178075750Y-49046000D02*
X186796750Y-40325000D01*
X138516250Y-83663750D02*
X145655000Y-76525000D01*
X145655000Y-68925000D02*
X165534000Y-49046000D01*
X395340193Y-147111000D02*
X394842307Y-147111000D01*
X345685000Y-145100000D02*
X345685000Y-155101250D01*
X395691250Y-157482500D02*
X395691250Y-146759943D01*
X394690250Y-146061057D02*
X394690250Y-144845250D01*
X60805000Y-135010000D02*
X62205000Y-133610000D01*
X62205000Y-126120000D02*
X62205000Y-122054250D01*
X52695000Y-141072500D02*
X58757500Y-135010000D01*
X77259250Y-107000000D02*
X83747500Y-107000000D01*
X350447500Y-159863750D02*
X393310000Y-159863750D01*
X116875000Y-87945000D02*
X121156250Y-83663750D01*
X90891250Y-100332500D02*
X103702684Y-100332500D01*
X52695000Y-145170000D02*
X52695000Y-141072500D01*
X62205000Y-122054250D02*
X77259250Y-107000000D01*
X394690250Y-144845250D02*
X365846250Y-116001250D01*
X395691250Y-146759943D02*
X395340193Y-147111000D01*
X62205000Y-133610000D02*
X62205000Y-126120000D01*
X58757500Y-135010000D02*
X60805000Y-135010000D01*
X393310000Y-159863750D02*
X395691250Y-157482500D01*
X335683750Y-145100000D02*
X331397500Y-140813750D01*
%TO.N,col8*%
X70067500Y-147680000D02*
X70067500Y-149734816D01*
X366460750Y-145100000D02*
X374080750Y-152720000D01*
X70067500Y-149734816D02*
X75433934Y-155101250D01*
X205846750Y-40325000D02*
X212335000Y-40325000D01*
X385186000Y-149620530D02*
X385186000Y-136891000D01*
X70067500Y-147680000D02*
X77507316Y-147680000D01*
X109465000Y-100332500D02*
X122812684Y-100332500D01*
X164710000Y-68900000D02*
X184564000Y-49046000D01*
X122812684Y-100332500D02*
X135160184Y-87985000D01*
X163925184Y-68900000D02*
X164710000Y-68900000D01*
X135160184Y-87985000D02*
X135945000Y-87985000D01*
X93272500Y-131914816D02*
X93272500Y-126050000D01*
X102797500Y-116525000D02*
X102797500Y-107000000D01*
X75433934Y-155101250D02*
X174235000Y-155101250D01*
X152803750Y-83663750D02*
X152803750Y-80021434D01*
X374080750Y-152720000D02*
X382086530Y-152720000D01*
X140266250Y-83663750D02*
X152803750Y-83663750D01*
X77507316Y-147680000D02*
X93272500Y-131914816D01*
X174235000Y-155101250D02*
X176616250Y-152720000D01*
X152803750Y-80021434D02*
X163925184Y-68900000D01*
X102797500Y-107000000D02*
X109465000Y-100332500D01*
X184564000Y-49046000D02*
X197125750Y-49046000D01*
X385186000Y-136891000D02*
X363306250Y-115011250D01*
X286153750Y-157482500D02*
X293297500Y-164626250D01*
X382086530Y-152720000D02*
X385186000Y-149620530D01*
X197125750Y-49046000D02*
X205846750Y-40325000D01*
X135945000Y-87985000D02*
X140266250Y-83663750D01*
X293297500Y-164626250D02*
X376641250Y-164626250D01*
X364735000Y-145100000D02*
X366460750Y-145100000D01*
X93272500Y-126050000D02*
X102797500Y-116525000D01*
X363306250Y-115011250D02*
X363306250Y-110968750D01*
%TO.N,col10*%
X138558750Y-148000000D02*
X147445000Y-148000000D01*
X150325000Y-145120000D02*
X171775000Y-145120000D01*
X173310184Y-87975000D02*
X174095000Y-87975000D01*
X378546250Y-91626750D02*
X378546250Y-93188750D01*
X178406250Y-83663750D02*
X200428750Y-83663750D01*
X202810000Y-68900000D02*
X222664000Y-49046000D01*
X200428750Y-83663750D02*
X202810000Y-81282500D01*
X131372500Y-115740184D02*
X140112684Y-107000000D01*
X147565000Y-100332500D02*
X162328750Y-100332500D01*
X164710000Y-96575184D02*
X173310184Y-87975000D01*
X373036000Y-86116500D02*
X378546250Y-91626750D01*
X131372500Y-126050000D02*
X131372500Y-115740184D01*
X174095000Y-87975000D02*
X178406250Y-83663750D01*
X140897500Y-107000000D02*
X147565000Y-100332500D01*
X147445000Y-148000000D02*
X150325000Y-145120000D01*
X222664000Y-49046000D02*
X245447686Y-49046000D01*
X140112684Y-107000000D02*
X140897500Y-107000000D01*
X371735000Y-40325000D02*
X373036000Y-41626000D01*
X162328750Y-100332500D02*
X164710000Y-97951250D01*
X164710000Y-97951250D02*
X164710000Y-96575184D01*
X131372500Y-140813750D02*
X138558750Y-148000000D01*
X254168686Y-40325000D02*
X259960000Y-40325000D01*
X245447686Y-49046000D02*
X254168686Y-40325000D01*
X373036000Y-41626000D02*
X373036000Y-86116500D01*
X202810000Y-81282500D02*
X202810000Y-68900000D01*
X131372500Y-126050000D02*
X131372500Y-140813750D01*
%TO.N,col11*%
X159947500Y-116525000D02*
X159947500Y-107000000D01*
X221860000Y-68900000D02*
X233290000Y-57470000D01*
X177544720Y-102713750D02*
X192293470Y-87965000D01*
X269278470Y-40325000D02*
X279010000Y-40325000D01*
X203126184Y-86849000D02*
X221075184Y-68900000D01*
X355686250Y-114143750D02*
X352828750Y-117001250D01*
X192293470Y-87965000D02*
X193135000Y-87965000D01*
X159947500Y-107000000D02*
X164233750Y-102713750D01*
X355686250Y-110968750D02*
X355686250Y-114143750D01*
X221075184Y-68900000D02*
X221860000Y-68900000D01*
X183902196Y-155101250D02*
X154850946Y-126050000D01*
X194251000Y-86849000D02*
X203126184Y-86849000D01*
X343303750Y-114620000D02*
X343303750Y-86045000D01*
X236907500Y-147640000D02*
X237235000Y-147967500D01*
X150422500Y-126050000D02*
X159947500Y-116525000D01*
X237235000Y-147967500D02*
X237235000Y-151632500D01*
X345685000Y-117001250D02*
X343303750Y-114620000D01*
X252133470Y-57470000D02*
X269278470Y-40325000D01*
X233290000Y-57470000D02*
X252133470Y-57470000D01*
X352828750Y-117001250D02*
X345685000Y-117001250D01*
X233766250Y-155101250D02*
X183902196Y-155101250D01*
X164233750Y-102713750D02*
X177544720Y-102713750D01*
X237235000Y-151632500D02*
X233766250Y-155101250D01*
X343303750Y-86045000D02*
X348066250Y-81282500D01*
X193135000Y-87965000D02*
X194251000Y-86849000D01*
X154850946Y-126050000D02*
X150422500Y-126050000D01*
%TO.N,col12*%
X211420184Y-87965000D02*
X212205000Y-87965000D01*
X369497500Y-40722608D02*
X369497500Y-55088750D01*
X352828750Y-52707500D02*
X355210000Y-50326250D01*
X183283750Y-102713750D02*
X198047500Y-102713750D01*
X248053750Y-150338750D02*
X248053750Y-145755500D01*
X362513314Y-70301000D02*
X348066250Y-84748064D01*
X178997500Y-107000000D02*
X183283750Y-102713750D01*
X233766250Y-75258934D02*
X240125184Y-68900000D01*
X216506250Y-83663750D02*
X231385000Y-83663750D01*
X302573557Y-60452250D02*
X303754220Y-60452250D01*
X234867250Y-132569000D02*
X225968316Y-132569000D01*
X233766250Y-81282500D02*
X233766250Y-75258934D01*
X258072750Y-153821000D02*
X251536000Y-153821000D01*
X369497500Y-55088750D02*
X369497500Y-66118814D01*
X371196108Y-39024000D02*
X369497500Y-40722608D01*
X291392500Y-40325000D02*
X298060000Y-40325000D01*
X200428750Y-98956434D02*
X211420184Y-87965000D01*
X348066250Y-105888750D02*
X353146250Y-110968750D01*
X303754220Y-60452250D02*
X309541985Y-54664485D01*
X248053750Y-145755500D02*
X234867250Y-132569000D01*
X369497500Y-66118814D02*
X365315314Y-70301000D01*
X260757500Y-151136250D02*
X258072750Y-153821000D01*
X173898316Y-134771000D02*
X169472500Y-130345184D01*
X223766316Y-134771000D02*
X173898316Y-134771000D01*
X365315314Y-70301000D02*
X362513314Y-70301000D01*
X260757500Y-147620000D02*
X260757500Y-151136250D01*
X178997500Y-116525000D02*
X178997500Y-107000000D01*
X391865250Y-39024000D02*
X371196108Y-39024000D01*
X348066250Y-84748064D02*
X348066250Y-105888750D01*
X198047500Y-102713750D02*
X200428750Y-100332500D01*
X352828750Y-55088750D02*
X352828750Y-52707500D01*
X298060000Y-40325000D02*
X298060000Y-55938693D01*
X240125184Y-68900000D02*
X240910000Y-68900000D01*
X355210000Y-50326250D02*
X364735000Y-50326250D01*
X169472500Y-130345184D02*
X169472500Y-126050000D01*
X225968316Y-132569000D02*
X223766316Y-134771000D01*
X271866250Y-59851250D02*
X291392500Y-40325000D01*
X200428750Y-100332500D02*
X200428750Y-98956434D01*
X169472500Y-126050000D02*
X178997500Y-116525000D01*
X212205000Y-87965000D02*
X216506250Y-83663750D01*
X251536000Y-153821000D02*
X248053750Y-150338750D01*
X249958750Y-59851250D02*
X271866250Y-59851250D01*
X364735000Y-50326250D02*
X369497500Y-55088750D01*
X240910000Y-68900000D02*
X249958750Y-59851250D01*
X298060000Y-55938693D02*
X302573557Y-60452250D01*
X393166250Y-40325000D02*
X391865250Y-39024000D01*
X231385000Y-83663750D02*
X233766250Y-81282500D01*
%TO.N,row1*%
X329417250Y-61831500D02*
X329016250Y-62232500D01*
X392015000Y-83040000D02*
X392397250Y-83422250D01*
X357591250Y-62232500D02*
X357190250Y-61831500D01*
X357190250Y-61831500D02*
X329417250Y-61831500D01*
X392397250Y-96117750D02*
X390805000Y-97710000D01*
X392397250Y-83422250D02*
X392397250Y-96117750D01*
%TD*%
M02*
